ISO-10303-21;
HEADER;
/* Generated by software containing ST-Developer
 * from STEP Tools, Inc. (www.steptools.com) 
 */
/* OPTION: using custom renumber hook */

FILE_DESCRIPTION(
/* description */ ('STEP AP242 Edition 2',
'CAx-IF Rec.Pracs.---Representation and Presentation of Product Manufa
cturing Information (PMI)---4.0---2014-10-13',
'CAx-IF Rec.Pracs.---3D Tessellated Geometry---0.4---2014-09-14','2;1',
'CAx-IF Rec.Pracs.---User Defined Attributes---1.5---2016-08-15'),
/* implementation_level */ '2;1');

FILE_NAME(
/* name */ 'AA Battery - AA Battery',
/* time_stamp */ '2026-07-13T10:02:09Z',
/* author */ (''),
/* organization */ (''),
/* preprocessor_version */ 'ST-DEVELOPER v20',
/* originating_system */ 'ONSHAPE BY PTC INC, 1.217',
/* authorisation */ '  ');

FILE_SCHEMA (('AP242_MANAGED_MODEL_BASED_3D_ENGINEERING_MIM_LF { 1 0 10303 442 3 1 4 }'));
ENDSEC;

DATA;
#10=SHAPE_REPRESENTATION_RELATIONSHIP('','',#224,#11);
#11=ADVANCED_BREP_SHAPE_REPRESENTATION('',(#222),#333);
#12=CONICAL_SURFACE('',#248,0.003,1.37340076694502);
#13=CYLINDRICAL_SURFACE('',#238,0.00275);
#14=CYLINDRICAL_SURFACE('',#243,0.00725);
#15=TOROIDAL_SURFACE('',#236,0.0025,0.00025);
#16=TOROIDAL_SURFACE('',#241,0.007,0.00025);
#17=TOROIDAL_SURFACE('',#245,0.007,0.00025);
#18=ORIENTED_EDGE('',*,*,#40,.F.);
#19=ORIENTED_EDGE('',*,*,#41,.F.);
#20=ORIENTED_EDGE('',*,*,#42,.T.);
#21=ORIENTED_EDGE('',*,*,#43,.F.);
#22=ORIENTED_EDGE('',*,*,#44,.F.);
#23=ORIENTED_EDGE('',*,*,#45,.T.);
#24=ORIENTED_EDGE('',*,*,#45,.F.);
#25=ORIENTED_EDGE('',*,*,#46,.T.);
#26=ORIENTED_EDGE('',*,*,#46,.F.);
#27=ORIENTED_EDGE('',*,*,#47,.T.);
#28=ORIENTED_EDGE('',*,*,#43,.T.);
#29=ORIENTED_EDGE('',*,*,#47,.F.);
#30=ORIENTED_EDGE('',*,*,#42,.F.);
#31=ORIENTED_EDGE('',*,*,#48,.T.);
#32=ORIENTED_EDGE('',*,*,#48,.F.);
#33=ORIENTED_EDGE('',*,*,#49,.T.);
#34=ORIENTED_EDGE('',*,*,#49,.F.);
#35=ORIENTED_EDGE('',*,*,#40,.T.);
#36=ORIENTED_EDGE('',*,*,#41,.T.);
#37=ORIENTED_EDGE('',*,*,#50,.T.);
#38=ORIENTED_EDGE('',*,*,#50,.F.);
#39=ORIENTED_EDGE('',*,*,#44,.T.);
#40=EDGE_CURVE('',#51,#51,#62,.T.);
#41=EDGE_CURVE('',#52,#52,#63,.F.);
#42=EDGE_CURVE('',#53,#53,#64,.T.);
#43=EDGE_CURVE('',#54,#54,#65,.F.);
#44=EDGE_CURVE('',#55,#55,#66,.T.);
#45=EDGE_CURVE('',#56,#56,#67,.T.);
#46=EDGE_CURVE('',#57,#57,#68,.T.);
#47=EDGE_CURVE('',#58,#58,#69,.T.);
#48=EDGE_CURVE('',#59,#59,#70,.T.);
#49=EDGE_CURVE('',#60,#60,#71,.T.);
#50=EDGE_CURVE('',#61,#61,#72,.T.);
#51=VERTEX_POINT('',#300);
#52=VERTEX_POINT('',#302);
#53=VERTEX_POINT('',#305);
#54=VERTEX_POINT('',#307);
#55=VERTEX_POINT('',#310);
#56=VERTEX_POINT('',#313);
#57=VERTEX_POINT('',#316);
#58=VERTEX_POINT('',#319);
#59=VERTEX_POINT('',#323);
#60=VERTEX_POINT('',#326);
#61=VERTEX_POINT('',#330);
#62=CIRCLE('',#227,0.007);
#63=CIRCLE('',#228,0.00475);
#64=CIRCLE('',#230,0.007);
#65=CIRCLE('',#231,0.00475);
#66=CIRCLE('',#233,0.003);
#67=CIRCLE('',#235,0.0025);
#68=CIRCLE('',#237,0.00275);
#69=CIRCLE('',#239,0.00275);
#70=CIRCLE('',#242,0.00725);
#71=CIRCLE('',#244,0.00725);
#72=CIRCLE('',#247,0.0035);
#73=EDGE_LOOP('',(#18));
#74=EDGE_LOOP('',(#19));
#75=EDGE_LOOP('',(#20));
#76=EDGE_LOOP('',(#21));
#77=EDGE_LOOP('',(#22));
#78=EDGE_LOOP('',(#23));
#79=EDGE_LOOP('',(#24));
#80=EDGE_LOOP('',(#25));
#81=EDGE_LOOP('',(#26));
#82=EDGE_LOOP('',(#27));
#83=EDGE_LOOP('',(#28));
#84=EDGE_LOOP('',(#29));
#85=EDGE_LOOP('',(#30));
#86=EDGE_LOOP('',(#31));
#87=EDGE_LOOP('',(#32));
#88=EDGE_LOOP('',(#33));
#89=EDGE_LOOP('',(#34));
#90=EDGE_LOOP('',(#35));
#91=EDGE_LOOP('',(#36));
#92=EDGE_LOOP('',(#37));
#93=EDGE_LOOP('',(#38));
#94=EDGE_LOOP('',(#39));
#95=FACE_BOUND('',#73,.T.);
#96=FACE_BOUND('',#74,.T.);
#97=FACE_BOUND('',#75,.T.);
#98=FACE_BOUND('',#76,.T.);
#99=FACE_BOUND('',#77,.T.);
#100=FACE_BOUND('',#78,.T.);
#101=FACE_BOUND('',#79,.T.);
#102=FACE_BOUND('',#80,.T.);
#103=FACE_BOUND('',#81,.T.);
#104=FACE_BOUND('',#82,.T.);
#105=FACE_BOUND('',#83,.T.);
#106=FACE_BOUND('',#84,.T.);
#107=FACE_BOUND('',#85,.T.);
#108=FACE_BOUND('',#86,.T.);
#109=FACE_BOUND('',#87,.T.);
#110=FACE_BOUND('',#88,.T.);
#111=FACE_BOUND('',#89,.T.);
#112=FACE_BOUND('',#90,.T.);
#113=FACE_BOUND('',#91,.T.);
#114=FACE_BOUND('',#92,.T.);
#115=FACE_BOUND('',#93,.T.);
#116=FACE_BOUND('',#94,.T.);
#117=PLANE('',#226);
#118=PLANE('',#229);
#119=PLANE('',#232);
#120=PLANE('',#234);
#121=PLANE('',#240);
#122=PLANE('',#246);
#123=STYLED_ITEM('',(#135),#209);
#124=STYLED_ITEM('',(#136),#210);
#125=STYLED_ITEM('',(#137),#211);
#126=STYLED_ITEM('',(#138),#212);
#127=STYLED_ITEM('',(#139),#213);
#128=STYLED_ITEM('',(#140),#214);
#129=STYLED_ITEM('',(#141),#215);
#130=STYLED_ITEM('',(#142),#216);
#131=STYLED_ITEM('',(#143),#217);
#132=STYLED_ITEM('',(#144),#218);
#133=STYLED_ITEM('',(#145),#219);
#134=STYLED_ITEM('',(#146),#220);
#135=PRESENTATION_STYLE_ASSIGNMENT((#147));
#136=PRESENTATION_STYLE_ASSIGNMENT((#148));
#137=PRESENTATION_STYLE_ASSIGNMENT((#149));
#138=PRESENTATION_STYLE_ASSIGNMENT((#150));
#139=PRESENTATION_STYLE_ASSIGNMENT((#151));
#140=PRESENTATION_STYLE_ASSIGNMENT((#152));
#141=PRESENTATION_STYLE_ASSIGNMENT((#153));
#142=PRESENTATION_STYLE_ASSIGNMENT((#154));
#143=PRESENTATION_STYLE_ASSIGNMENT((#155));
#144=PRESENTATION_STYLE_ASSIGNMENT((#156));
#145=PRESENTATION_STYLE_ASSIGNMENT((#157));
#146=PRESENTATION_STYLE_ASSIGNMENT((#158));
#147=SURFACE_STYLE_USAGE(.BOTH.,#159);
#148=SURFACE_STYLE_USAGE(.BOTH.,#160);
#149=SURFACE_STYLE_USAGE(.BOTH.,#161);
#150=SURFACE_STYLE_USAGE(.BOTH.,#162);
#151=SURFACE_STYLE_USAGE(.BOTH.,#163);
#152=SURFACE_STYLE_USAGE(.BOTH.,#164);
#153=SURFACE_STYLE_USAGE(.BOTH.,#165);
#154=SURFACE_STYLE_USAGE(.BOTH.,#166);
#155=SURFACE_STYLE_USAGE(.BOTH.,#167);
#156=SURFACE_STYLE_USAGE(.BOTH.,#168);
#157=SURFACE_STYLE_USAGE(.BOTH.,#169);
#158=SURFACE_STYLE_USAGE(.BOTH.,#170);
#159=SURFACE_SIDE_STYLE('',(#171));
#160=SURFACE_SIDE_STYLE('',(#172));
#161=SURFACE_SIDE_STYLE('',(#173));
#162=SURFACE_SIDE_STYLE('',(#174));
#163=SURFACE_SIDE_STYLE('',(#175));
#164=SURFACE_SIDE_STYLE('',(#176));
#165=SURFACE_SIDE_STYLE('',(#177));
#166=SURFACE_SIDE_STYLE('',(#178));
#167=SURFACE_SIDE_STYLE('',(#179));
#168=SURFACE_SIDE_STYLE('',(#180));
#169=SURFACE_SIDE_STYLE('',(#181));
#170=SURFACE_SIDE_STYLE('',(#182));
#171=SURFACE_STYLE_FILL_AREA(#183);
#172=SURFACE_STYLE_FILL_AREA(#184);
#173=SURFACE_STYLE_FILL_AREA(#185);
#174=SURFACE_STYLE_FILL_AREA(#186);
#175=SURFACE_STYLE_FILL_AREA(#187);
#176=SURFACE_STYLE_FILL_AREA(#188);
#177=SURFACE_STYLE_FILL_AREA(#189);
#178=SURFACE_STYLE_FILL_AREA(#190);
#179=SURFACE_STYLE_FILL_AREA(#191);
#180=SURFACE_STYLE_FILL_AREA(#192);
#181=SURFACE_STYLE_FILL_AREA(#193);
#182=SURFACE_STYLE_FILL_AREA(#194);
#183=FILL_AREA_STYLE('',(#195));
#184=FILL_AREA_STYLE('',(#196));
#185=FILL_AREA_STYLE('',(#197));
#186=FILL_AREA_STYLE('',(#198));
#187=FILL_AREA_STYLE('',(#199));
#188=FILL_AREA_STYLE('',(#200));
#189=FILL_AREA_STYLE('',(#201));
#190=FILL_AREA_STYLE('',(#202));
#191=FILL_AREA_STYLE('',(#203));
#192=FILL_AREA_STYLE('',(#204));
#193=FILL_AREA_STYLE('',(#205));
#194=FILL_AREA_STYLE('',(#206));
#195=FILL_AREA_STYLE_COLOUR('',#207);
#196=FILL_AREA_STYLE_COLOUR('',#207);
#197=FILL_AREA_STYLE_COLOUR('',#208);
#198=FILL_AREA_STYLE_COLOUR('',#208);
#199=FILL_AREA_STYLE_COLOUR('',#208);
#200=FILL_AREA_STYLE_COLOUR('',#208);
#201=FILL_AREA_STYLE_COLOUR('',#208);
#202=FILL_AREA_STYLE_COLOUR('',#207);
#203=FILL_AREA_STYLE_COLOUR('',#207);
#204=FILL_AREA_STYLE_COLOUR('',#207);
#205=FILL_AREA_STYLE_COLOUR('',#208);
#206=FILL_AREA_STYLE_COLOUR('',#208);
#207=COLOUR_RGB('',0.694117647058824,0.101960784313725,0.101960784313725);
#208=COLOUR_RGB('',0.776470588235294,0.756862745098039,0.737254901960784);
#209=ADVANCED_FACE('',(#95,#96),#117,.F.);
#210=ADVANCED_FACE('',(#97,#98),#118,.F.);
#211=ADVANCED_FACE('',(#99),#119,.F.);
#212=ADVANCED_FACE('',(#100),#120,.F.);
#213=ADVANCED_FACE('',(#101,#102),#15,.T.);
#214=ADVANCED_FACE('',(#103,#104),#13,.T.);
#215=ADVANCED_FACE('',(#105,#106),#121,.F.);
#216=ADVANCED_FACE('',(#107,#108),#16,.T.);
#217=ADVANCED_FACE('',(#109,#110),#14,.T.);
#218=ADVANCED_FACE('',(#111,#112),#17,.T.);
#219=ADVANCED_FACE('',(#113,#114),#122,.F.);
#220=ADVANCED_FACE('',(#115,#116),#12,.T.);
#221=CLOSED_SHELL('',(#209,#210,#211,#212,#213,#214,#215,#216,#217,#218,
#219,#220));
#222=MANIFOLD_SOLID_BREP('',#221);
#223=SHAPE_DEFINITION_REPRESENTATION(#338,#224);
#224=SHAPE_REPRESENTATION('id2',(#225),#333);
#225=AXIS2_PLACEMENT_3D('',#297,#249,#250);
#226=AXIS2_PLACEMENT_3D('',#298,#251,#252);
#227=AXIS2_PLACEMENT_3D('',#299,#253,#254);
#228=AXIS2_PLACEMENT_3D('',#301,#255,#256);
#229=AXIS2_PLACEMENT_3D('',#303,#257,#258);
#230=AXIS2_PLACEMENT_3D('',#304,#259,#260);
#231=AXIS2_PLACEMENT_3D('',#306,#261,#262);
#232=AXIS2_PLACEMENT_3D('',#308,#263,#264);
#233=AXIS2_PLACEMENT_3D('',#309,#265,#266);
#234=AXIS2_PLACEMENT_3D('',#311,#267,#268);
#235=AXIS2_PLACEMENT_3D('',#312,#269,#270);
#236=AXIS2_PLACEMENT_3D('',#314,#271,#272);
#237=AXIS2_PLACEMENT_3D('',#315,#273,#274);
#238=AXIS2_PLACEMENT_3D('',#317,#275,#276);
#239=AXIS2_PLACEMENT_3D('',#318,#277,#278);
#240=AXIS2_PLACEMENT_3D('',#320,#279,#280);
#241=AXIS2_PLACEMENT_3D('',#321,#281,#282);
#242=AXIS2_PLACEMENT_3D('',#322,#283,#284);
#243=AXIS2_PLACEMENT_3D('',#324,#285,#286);
#244=AXIS2_PLACEMENT_3D('',#325,#287,#288);
#245=AXIS2_PLACEMENT_3D('',#327,#289,#290);
#246=AXIS2_PLACEMENT_3D('',#328,#291,#292);
#247=AXIS2_PLACEMENT_3D('',#329,#293,#294);
#248=AXIS2_PLACEMENT_3D('',#331,#295,#296);
#249=DIRECTION('',(0.,0.,1.));
#250=DIRECTION('',(1.,0.,0.));
#251=DIRECTION('',(0.,1.,0.));
#252=DIRECTION('',(0.,0.,1.));
#253=DIRECTION('',(0.,1.,0.));
#254=DIRECTION('',(0.,0.,1.));
#255=DIRECTION('',(0.,1.,0.));
#256=DIRECTION('',(0.,0.,1.));
#257=DIRECTION('',(0.,-1.,0.));
#258=DIRECTION('',(0.,0.,-1.));
#259=DIRECTION('',(0.,1.,0.));
#260=DIRECTION('',(0.,0.,1.));
#261=DIRECTION('',(0.,-1.,0.));
#262=DIRECTION('',(0.,0.,-1.));
#263=DIRECTION('',(0.,1.,0.));
#264=DIRECTION('',(0.,0.,1.));
#265=DIRECTION('',(0.,1.,0.));
#266=DIRECTION('',(0.,0.,1.));
#267=DIRECTION('',(0.,-1.,0.));
#268=DIRECTION('',(0.,0.,-1.));
#269=DIRECTION('',(0.,1.,0.));
#270=DIRECTION('',(0.,0.,1.));
#271=DIRECTION('',(0.,1.,0.));
#272=DIRECTION('',(0.,0.,1.));
#273=DIRECTION('',(0.,1.,0.));
#274=DIRECTION('',(0.,0.,1.));
#275=DIRECTION('',(0.,1.,0.));
#276=DIRECTION('',(0.,0.,1.));
#277=DIRECTION('',(0.,1.,0.));
#278=DIRECTION('',(0.,0.,1.));
#279=DIRECTION('',(0.,-1.,0.));
#280=DIRECTION('',(0.,0.,-1.));
#281=DIRECTION('',(0.,1.,0.));
#282=DIRECTION('',(0.,0.,1.));
#283=DIRECTION('',(0.,1.,0.));
#284=DIRECTION('',(0.,0.,1.));
#285=DIRECTION('',(0.,1.,0.));
#286=DIRECTION('',(0.,0.,1.));
#287=DIRECTION('',(0.,1.,0.));
#288=DIRECTION('',(0.,0.,1.));
#289=DIRECTION('',(0.,1.,0.));
#290=DIRECTION('',(0.,0.,1.));
#291=DIRECTION('',(0.,1.,0.));
#292=DIRECTION('',(0.,0.,1.));
#293=DIRECTION('',(0.,1.,0.));
#294=DIRECTION('',(0.,0.,1.));
#295=DIRECTION('',(0.,1.,0.));
#296=DIRECTION('',(0.,0.,1.));
#297=CARTESIAN_POINT('',(0.,0.,0.));
#298=CARTESIAN_POINT('',(0.,0.0001,-0.007));
#299=CARTESIAN_POINT('',(0.,0.0001,0.));
#300=CARTESIAN_POINT('',(0.,0.0001,0.007));
#301=CARTESIAN_POINT('',(0.,0.000100000000000003,0.));
#302=CARTESIAN_POINT('',(0.,0.000100000000000003,0.00475));
#303=CARTESIAN_POINT('',(0.,0.0495,-0.00275));
#304=CARTESIAN_POINT('',(0.,0.0495,0.));
#305=CARTESIAN_POINT('',(0.,0.0495,0.007));
#306=CARTESIAN_POINT('',(0.,0.0495,0.));
#307=CARTESIAN_POINT('',(0.,0.0495,-0.00475));
#308=CARTESIAN_POINT('',(0.,6.4161232259447E-21,-0.003));
#309=CARTESIAN_POINT('',(0.,1.28322464518894E-20,0.));
#310=CARTESIAN_POINT('',(0.,1.28322464518894E-20,0.003));
#311=CARTESIAN_POINT('',(0.,0.0505,0.));
#312=CARTESIAN_POINT('',(0.,0.0505,0.));
#313=CARTESIAN_POINT('',(0.,0.0505,0.0025));
#314=CARTESIAN_POINT('',(0.,0.05025,0.));
#315=CARTESIAN_POINT('',(0.,0.05025,0.));
#316=CARTESIAN_POINT('',(0.,0.05025,0.00275));
#317=CARTESIAN_POINT('',(0.,0.,0.));
#318=CARTESIAN_POINT('',(0.,0.0495,0.));
#319=CARTESIAN_POINT('',(0.,0.0495,0.00275));
#320=CARTESIAN_POINT('',(0.,0.0495,-0.00275));
#321=CARTESIAN_POINT('',(0.,0.04925,0.));
#322=CARTESIAN_POINT('',(0.,0.04925,0.));
#323=CARTESIAN_POINT('',(0.,0.04925,0.00725));
#324=CARTESIAN_POINT('',(0.,0.,0.));
#325=CARTESIAN_POINT('',(0.,0.00035,0.));
#326=CARTESIAN_POINT('',(0.,0.00035,0.00725));
#327=CARTESIAN_POINT('',(0.,0.00035,0.));
#328=CARTESIAN_POINT('',(0.,0.0001,-0.007));
#329=CARTESIAN_POINT('',(0.,0.0001,0.));
#330=CARTESIAN_POINT('',(0.,0.0001,0.0035));
#331=CARTESIAN_POINT('',(0.,1.28322464518894E-20,0.));
#332=MECHANICAL_DESIGN_GEOMETRIC_PRESENTATION_REPRESENTATION('',(#123,#124,
#125,#126,#127,#128,#129,#130,#131,#132,#133,#134),#333);
#333=(
GEOMETRIC_REPRESENTATION_CONTEXT(3)
GLOBAL_UNCERTAINTY_ASSIGNED_CONTEXT((#334))
GLOBAL_UNIT_ASSIGNED_CONTEXT((#337,#336,#335))
REPRESENTATION_CONTEXT('id2','TOP_LEVEL_ASSEMBLY_PART')
);
#334=UNCERTAINTY_MEASURE_WITH_UNIT(LENGTH_MEASURE(1.E-8),#337,
'DISTANCE_ACCURACY_VALUE','Maximum Tolerance applied to model');
#335=(
NAMED_UNIT(*)
SI_UNIT($,.STERADIAN.)
SOLID_ANGLE_UNIT()
);
#336=(
NAMED_UNIT(*)
PLANE_ANGLE_UNIT()
SI_UNIT($,.RADIAN.)
);
#337=(
LENGTH_UNIT()
NAMED_UNIT(*)
SI_UNIT($,.METRE.)
);
#338=PRODUCT_DEFINITION_SHAPE('','',#339);
#339=PRODUCT_DEFINITION('','',#341,#340);
#340=PRODUCT_DEFINITION_CONTEXT('',#347,'design');
#341=PRODUCT_DEFINITION_FORMATION_WITH_SPECIFIED_SOURCE('','',#343,
 .NOT_KNOWN.);
#342=PRODUCT_RELATED_PRODUCT_CATEGORY('','',(#343));
#343=PRODUCT('id2','id2','id2',(#345));
#344=PRODUCT_CATEGORY('','');
#345=PRODUCT_CONTEXT('',#347,'mechanical');
#346=APPLICATION_PROTOCOL_DEFINITION('international standard',
'ap242_managed_model_based_3d_engineering',2020,#347);
#347=APPLICATION_CONTEXT('managed model based 3d engineering');
ENDSEC;
END-ISO-10303-21;
