solid CTC5
  facet normal 0.0 -0.9978589232386035 -0.06540312923014358
    outer loop
      vertex 0 6.0 0.0
      vertex 110.0 6.0 0.0
      vertex 110.0 5.948669168242862 0.7831571533203094
    endloop
  endfacet
  facet normal 0.0 -0.9978589232386035 -0.06540312923014358
    outer loop
      vertex 0 6.0 0.0
      vertex 110.0 5.948669168242862 0.7831571533203094
      vertex 0 5.948669168242862 0.7831571533203094
    endloop
  endfacet
  facet normal -1.0 0.0 0.0
    outer loop
      vertex 0 0 0
      vertex 0 5.948669168242862 0.7831571533203094
      vertex 0 6.0 0.0
    endloop
  endfacet
  facet normal 1.0 0.0 0.0
    outer loop
      vertex 110.0 0 0
      vertex 110.0 6.0 0.0
      vertex 110.0 5.948669168242862 0.7831571533203094
    endloop
  endfacet
  facet normal 0.0 -0.9807852804032307 -0.19509032201612733
    outer loop
      vertex 0 5.948669168242862 0.7831571533203094
      vertex 110.0 5.948669168242862 0.7831571533203094
      vertex 110.0 5.79555495773441 1.5529142706151244
    endloop
  endfacet
  facet normal 0.0 -0.9807852804032307 -0.19509032201612733
    outer loop
      vertex 0 5.948669168242862 0.7831571533203094
      vertex 110.0 5.79555495773441 1.5529142706151244
      vertex 0 5.79555495773441 1.5529142706151244
    endloop
  endfacet
  facet normal -1.0 0.0 0.0
    outer loop
      vertex 0 0 0
      vertex 0 5.79555495773441 1.5529142706151244
      vertex 0 5.948669168242862 0.7831571533203094
    endloop
  endfacet
  facet normal 1.0 0.0 0.0
    outer loop
      vertex 110.0 0 0
      vertex 110.0 5.948669168242862 0.7831571533203094
      vertex 110.0 5.79555495773441 1.5529142706151244
    endloop
  endfacet
  facet normal 0.0 -0.9469301294951054 -0.32143946530316264
    outer loop
      vertex 0 5.79555495773441 1.5529142706151244
      vertex 110.0 5.79555495773441 1.5529142706151244
      vertex 110.0 5.54327719506772 2.2961005941905386
    endloop
  endfacet
  facet normal 0.0 -0.9469301294951054 -0.32143946530316264
    outer loop
      vertex 0 5.79555495773441 1.5529142706151244
      vertex 110.0 5.54327719506772 2.2961005941905386
      vertex 0 5.54327719506772 2.2961005941905386
    endloop
  endfacet
  facet normal -1.0 0.0 0.0
    outer loop
      vertex 0 0 0
      vertex 0 5.54327719506772 2.2961005941905386
      vertex 0 5.79555495773441 1.5529142706151244
    endloop
  endfacet
  facet normal 1.0 0.0 0.0
    outer loop
      vertex 110.0 0 0
      vertex 110.0 5.79555495773441 1.5529142706151244
      vertex 110.0 5.54327719506772 2.2961005941905386
    endloop
  endfacet
  facet normal 0.0 -0.8968727415326886 -0.4422886902190008
    outer loop
      vertex 0 5.54327719506772 2.2961005941905386
      vertex 110.0 5.54327719506772 2.2961005941905386
      vertex 110.0 5.196152422706632 2.9999999999999996
    endloop
  endfacet
  facet normal 0.0 -0.8968727415326886 -0.4422886902190008
    outer loop
      vertex 0 5.54327719506772 2.2961005941905386
      vertex 110.0 5.196152422706632 2.9999999999999996
      vertex 0 5.196152422706632 2.9999999999999996
    endloop
  endfacet
  facet normal -1.0 0.0 0.0
    outer loop
      vertex 0 0 0
      vertex 0 5.196152422706632 2.9999999999999996
      vertex 0 5.54327719506772 2.2961005941905386
    endloop
  endfacet
  facet normal 1.0 0.0 0.0
    outer loop
      vertex 110.0 0 0
      vertex 110.0 5.54327719506772 2.2961005941905386
      vertex 110.0 5.196152422706632 2.9999999999999996
    endloop
  endfacet
  facet normal 0.0 -0.8314696123025456 -0.5555702330196016
    outer loop
      vertex 0 5.196152422706632 2.9999999999999996
      vertex 110.0 5.196152422706632 2.9999999999999996
      vertex 110.0 4.760120041747411 3.652568574052324
    endloop
  endfacet
  facet normal 0.0 -0.8314696123025456 -0.5555702330196016
    outer loop
      vertex 0 5.196152422706632 2.9999999999999996
      vertex 110.0 4.760120041747411 3.652568574052324
      vertex 0 4.760120041747411 3.652568574052324
    endloop
  endfacet
  facet normal -1.0 0.0 0.0
    outer loop
      vertex 0 0 0
      vertex 0 4.760120041747411 3.652568574052324
      vertex 0 5.196152422706632 2.9999999999999996
    endloop
  endfacet
  facet normal 1.0 0.0 0.0
    outer loop
      vertex 110.0 0 0
      vertex 110.0 5.196152422706632 2.9999999999999996
      vertex 110.0 4.760120041747411 3.652568574052324
    endloop
  endfacet
  facet normal 0.0 -0.751839807478977 -0.6593458151000691
    outer loop
      vertex 0 4.760120041747411 3.652568574052324
      vertex 110.0 4.760120041747411 3.652568574052324
      vertex 110.0 4.242640687119286 4.242640687119285
    endloop
  endfacet
  facet normal 0.0 -0.751839807478977 -0.6593458151000691
    outer loop
      vertex 0 4.760120041747411 3.652568574052324
      vertex 110.0 4.242640687119286 4.242640687119285
      vertex 0 4.242640687119286 4.242640687119285
    endloop
  endfacet
  facet normal -1.0 0.0 0.0
    outer loop
      vertex 0 0 0
      vertex 0 4.242640687119286 4.242640687119285
      vertex 0 4.760120041747411 3.652568574052324
    endloop
  endfacet
  facet normal 1.0 0.0 0.0
    outer loop
      vertex 110.0 0 0
      vertex 110.0 4.760120041747411 3.652568574052324
      vertex 110.0 4.242640687119286 4.242640687119285
    endloop
  endfacet
  facet normal 0.0 -0.6593458151000693 -0.7518398074789772
    outer loop
      vertex 0 4.242640687119286 4.242640687119285
      vertex 110.0 4.242640687119286 4.242640687119285
      vertex 110.0 3.652568574052324 4.760120041747411
    endloop
  endfacet
  facet normal 0.0 -0.6593458151000693 -0.7518398074789772
    outer loop
      vertex 0 4.242640687119286 4.242640687119285
      vertex 110.0 3.652568574052324 4.760120041747411
      vertex 0 3.652568574052324 4.760120041747411
    endloop
  endfacet
  facet normal -1.0 0.0 0.0
    outer loop
      vertex 0 0 0
      vertex 0 3.652568574052324 4.760120041747411
      vertex 0 4.242640687119286 4.242640687119285
    endloop
  endfacet
  facet normal 1.0 0.0 0.0
    outer loop
      vertex 110.0 0 0
      vertex 110.0 4.242640687119286 4.242640687119285
      vertex 110.0 3.652568574052324 4.760120041747411
    endloop
  endfacet
  facet normal 0.0 -0.5555702330196024 -0.831469612302545
    outer loop
      vertex 0 3.652568574052324 4.760120041747411
      vertex 110.0 3.652568574052324 4.760120041747411
      vertex 110.0 3.000000000000001 5.196152422706632
    endloop
  endfacet
  facet normal 0.0 -0.5555702330196024 -0.831469612302545
    outer loop
      vertex 0 3.652568574052324 4.760120041747411
      vertex 110.0 3.000000000000001 5.196152422706632
      vertex 0 3.000000000000001 5.196152422706632
    endloop
  endfacet
  facet normal -1.0 0.0 0.0
    outer loop
      vertex 0 0 0
      vertex 0 3.000000000000001 5.196152422706632
      vertex 0 3.652568574052324 4.760120041747411
    endloop
  endfacet
  facet normal 1.0 0.0 0.0
    outer loop
      vertex 110.0 0 0
      vertex 110.0 3.652568574052324 4.760120041747411
      vertex 110.0 3.000000000000001 5.196152422706632
    endloop
  endfacet
  facet normal 0.0 -0.4422886902190003 -0.8968727415326887
    outer loop
      vertex 0 3.000000000000001 5.196152422706632
      vertex 110.0 3.000000000000001 5.196152422706632
      vertex 110.0 2.296100594190539 5.54327719506772
    endloop
  endfacet
  facet normal 0.0 -0.4422886902190003 -0.8968727415326887
    outer loop
      vertex 0 3.000000000000001 5.196152422706632
      vertex 110.0 2.296100594190539 5.54327719506772
      vertex 0 2.296100594190539 5.54327719506772
    endloop
  endfacet
  facet normal -1.0 0.0 0.0
    outer loop
      vertex 0 0 0
      vertex 0 2.296100594190539 5.54327719506772
      vertex 0 3.000000000000001 5.196152422706632
    endloop
  endfacet
  facet normal 1.0 0.0 0.0
    outer loop
      vertex 110.0 0 0
      vertex 110.0 3.000000000000001 5.196152422706632
      vertex 110.0 2.296100594190539 5.54327719506772
    endloop
  endfacet
  facet normal 0.0 -0.3214394653031624 -0.9469301294951055
    outer loop
      vertex 0 2.296100594190539 5.54327719506772
      vertex 110.0 2.296100594190539 5.54327719506772
      vertex 110.0 1.5529142706151244 5.79555495773441
    endloop
  endfacet
  facet normal 0.0 -0.3214394653031624 -0.9469301294951055
    outer loop
      vertex 0 2.296100594190539 5.54327719506772
      vertex 110.0 1.5529142706151244 5.79555495773441
      vertex 0 1.5529142706151244 5.79555495773441
    endloop
  endfacet
  facet normal -1.0 0.0 0.0
    outer loop
      vertex 0 0 0
      vertex 0 1.5529142706151244 5.79555495773441
      vertex 0 2.296100594190539 5.54327719506772
    endloop
  endfacet
  facet normal 1.0 0.0 0.0
    outer loop
      vertex 110.0 0 0
      vertex 110.0 2.296100594190539 5.54327719506772
      vertex 110.0 1.5529142706151244 5.79555495773441
    endloop
  endfacet
  facet normal 0.0 -0.19509032201612755 -0.9807852804032307
    outer loop
      vertex 0 1.5529142706151244 5.79555495773441
      vertex 110.0 1.5529142706151244 5.79555495773441
      vertex 110.0 0.7831571533203103 5.948669168242862
    endloop
  endfacet
  facet normal 0.0 -0.19509032201612755 -0.9807852804032307
    outer loop
      vertex 0 1.5529142706151244 5.79555495773441
      vertex 110.0 0.7831571533203103 5.948669168242862
      vertex 0 0.7831571533203103 5.948669168242862
    endloop
  endfacet
  facet normal -1.0 0.0 0.0
    outer loop
      vertex 0 0 0
      vertex 0 0.7831571533203103 5.948669168242862
      vertex 0 1.5529142706151244 5.79555495773441
    endloop
  endfacet
  facet normal 1.0 0.0 0.0
    outer loop
      vertex 110.0 0 0
      vertex 110.0 1.5529142706151244 5.79555495773441
      vertex 110.0 0.7831571533203103 5.948669168242862
    endloop
  endfacet
  facet normal 0.0 -0.06540312923014353 -0.9978589232386035
    outer loop
      vertex 0 0.7831571533203103 5.948669168242862
      vertex 110.0 0.7831571533203103 5.948669168242862
      vertex 110.0 3.6739403974420594e-16 6.0
    endloop
  endfacet
  facet normal 0.0 -0.06540312923014353 -0.9978589232386035
    outer loop
      vertex 0 0.7831571533203103 5.948669168242862
      vertex 110.0 3.6739403974420594e-16 6.0
      vertex 0 3.6739403974420594e-16 6.0
    endloop
  endfacet
  facet normal -1.0 0.0 0.0
    outer loop
      vertex 0 0 0
      vertex 0 3.6739403974420594e-16 6.0
      vertex 0 0.7831571533203103 5.948669168242862
    endloop
  endfacet
  facet normal 1.0 0.0 0.0
    outer loop
      vertex 110.0 0 0
      vertex 110.0 0.7831571533203103 5.948669168242862
      vertex 110.0 3.6739403974420594e-16 6.0
    endloop
  endfacet
  facet normal 0.0 0.06540312923014353 -0.9978589232386035
    outer loop
      vertex 0 3.6739403974420594e-16 6.0
      vertex 110.0 3.6739403974420594e-16 6.0
      vertex 110.0 -0.7831571533203097 5.948669168242862
    endloop
  endfacet
  facet normal 0.0 0.06540312923014353 -0.9978589232386035
    outer loop
      vertex 0 3.6739403974420594e-16 6.0
      vertex 110.0 -0.7831571533203097 5.948669168242862
      vertex 0 -0.7831571533203097 5.948669168242862
    endloop
  endfacet
  facet normal -1.0 0.0 0.0
    outer loop
      vertex 0 0 0
      vertex 0 -0.7831571533203097 5.948669168242862
      vertex 0 3.6739403974420594e-16 6.0
    endloop
  endfacet
  facet normal 1.0 0.0 -0.0
    outer loop
      vertex 110.0 0 0
      vertex 110.0 3.6739403974420594e-16 6.0
      vertex 110.0 -0.7831571533203097 5.948669168242862
    endloop
  endfacet
  facet normal 0.0 0.19509032201612755 -0.9807852804032307
    outer loop
      vertex 0 -0.7831571533203097 5.948669168242862
      vertex 110.0 -0.7831571533203097 5.948669168242862
      vertex 110.0 -1.5529142706151238 5.79555495773441
    endloop
  endfacet
  facet normal 0.0 0.19509032201612755 -0.9807852804032307
    outer loop
      vertex 0 -0.7831571533203097 5.948669168242862
      vertex 110.0 -1.5529142706151238 5.79555495773441
      vertex 0 -1.5529142706151238 5.79555495773441
    endloop
  endfacet
  facet normal -1.0 0.0 0.0
    outer loop
      vertex 0 0 0
      vertex 0 -1.5529142706151238 5.79555495773441
      vertex 0 -0.7831571533203097 5.948669168242862
    endloop
  endfacet
  facet normal 1.0 0.0 0.0
    outer loop
      vertex 110.0 0 0
      vertex 110.0 -0.7831571533203097 5.948669168242862
      vertex 110.0 -1.5529142706151238 5.79555495773441
    endloop
  endfacet
  facet normal 0.0 0.321439465303162 -0.9469301294951055
    outer loop
      vertex 0 -1.5529142706151238 5.79555495773441
      vertex 110.0 -1.5529142706151238 5.79555495773441
      vertex 110.0 -2.296100594190537 5.543277195067721
    endloop
  endfacet
  facet normal 0.0 0.321439465303162 -0.9469301294951055
    outer loop
      vertex 0 -1.5529142706151238 5.79555495773441
      vertex 110.0 -2.296100594190537 5.543277195067721
      vertex 0 -2.296100594190537 5.543277195067721
    endloop
  endfacet
  facet normal -1.0 0.0 0.0
    outer loop
      vertex 0 0 0
      vertex 0 -2.296100594190537 5.543277195067721
      vertex 0 -1.5529142706151238 5.79555495773441
    endloop
  endfacet
  facet normal 1.0 0.0 0.0
    outer loop
      vertex 110.0 0 0
      vertex 110.0 -1.5529142706151238 5.79555495773441
      vertex 110.0 -2.296100594190537 5.543277195067721
    endloop
  endfacet
  facet normal 0.0 0.4422886902190011 -0.8968727415326885
    outer loop
      vertex 0 -2.296100594190537 5.543277195067721
      vertex 110.0 -2.296100594190537 5.543277195067721
      vertex 110.0 -2.999999999999999 5.196152422706632
    endloop
  endfacet
  facet normal 0.0 0.4422886902190011 -0.8968727415326885
    outer loop
      vertex 0 -2.296100594190537 5.543277195067721
      vertex 110.0 -2.999999999999999 5.196152422706632
      vertex 0 -2.999999999999999 5.196152422706632
    endloop
  endfacet
  facet normal -1.0 0.0 0.0
    outer loop
      vertex 0 0 0
      vertex 0 -2.999999999999999 5.196152422706632
      vertex 0 -2.296100594190537 5.543277195067721
    endloop
  endfacet
  facet normal 1.0 0.0 0.0
    outer loop
      vertex 110.0 0 0
      vertex 110.0 -2.296100594190537 5.543277195067721
      vertex 110.0 -2.999999999999999 5.196152422706632
    endloop
  endfacet
  facet normal 0.0 0.5555702330196015 -0.8314696123025458
    outer loop
      vertex 0 -2.999999999999999 5.196152422706632
      vertex 110.0 -2.999999999999999 5.196152422706632
      vertex 110.0 -3.652568574052324 4.760120041747411
    endloop
  endfacet
  facet normal 0.0 0.5555702330196015 -0.8314696123025458
    outer loop
      vertex 0 -2.999999999999999 5.196152422706632
      vertex 110.0 -3.652568574052324 4.760120041747411
      vertex 0 -3.652568574052324 4.760120041747411
    endloop
  endfacet
  facet normal -1.0 0.0 0.0
    outer loop
      vertex 0 0 0
      vertex 0 -3.652568574052324 4.760120041747411
      vertex 0 -2.999999999999999 5.196152422706632
    endloop
  endfacet
  facet normal 1.0 0.0 0.0
    outer loop
      vertex 110.0 0 0
      vertex 110.0 -2.999999999999999 5.196152422706632
      vertex 110.0 -3.652568574052324 4.760120041747411
    endloop
  endfacet
  facet normal 0.0 0.6593458151000691 -0.751839807478977
    outer loop
      vertex 0 -3.652568574052324 4.760120041747411
      vertex 110.0 -3.652568574052324 4.760120041747411
      vertex 110.0 -4.242640687119285 4.242640687119286
    endloop
  endfacet
  facet normal 0.0 0.6593458151000691 -0.751839807478977
    outer loop
      vertex 0 -3.652568574052324 4.760120041747411
      vertex 110.0 -4.242640687119285 4.242640687119286
      vertex 0 -4.242640687119285 4.242640687119286
    endloop
  endfacet
  facet normal -1.0 0.0 0.0
    outer loop
      vertex 0 0 0
      vertex 0 -4.242640687119285 4.242640687119286
      vertex 0 -3.652568574052324 4.760120041747411
    endloop
  endfacet
  facet normal 1.0 0.0 0.0
    outer loop
      vertex 110.0 0 0
      vertex 110.0 -3.652568574052324 4.760120041747411
      vertex 110.0 -4.242640687119285 4.242640687119286
    endloop
  endfacet
  facet normal 0.0 0.7518398074789769 -0.6593458151000694
    outer loop
      vertex 0 -4.242640687119285 4.242640687119286
      vertex 110.0 -4.242640687119285 4.242640687119286
      vertex 110.0 -4.7601200417474105 3.6525685740523253
    endloop
  endfacet
  facet normal 0.0 0.7518398074789769 -0.6593458151000694
    outer loop
      vertex 0 -4.242640687119285 4.242640687119286
      vertex 110.0 -4.7601200417474105 3.6525685740523253
      vertex 0 -4.7601200417474105 3.6525685740523253
    endloop
  endfacet
  facet normal -1.0 0.0 0.0
    outer loop
      vertex 0 0 0
      vertex 0 -4.7601200417474105 3.6525685740523253
      vertex 0 -4.242640687119285 4.242640687119286
    endloop
  endfacet
  facet normal 1.0 0.0 0.0
    outer loop
      vertex 110.0 0 0
      vertex 110.0 -4.242640687119285 4.242640687119286
      vertex 110.0 -4.7601200417474105 3.6525685740523253
    endloop
  endfacet
  facet normal 0.0 0.8314696123025456 -0.5555702330196016
    outer loop
      vertex 0 -4.7601200417474105 3.6525685740523253
      vertex 110.0 -4.7601200417474105 3.6525685740523253
      vertex 110.0 -5.196152422706632 2.9999999999999996
    endloop
  endfacet
  facet normal 0.0 0.8314696123025456 -0.5555702330196016
    outer loop
      vertex 0 -4.7601200417474105 3.6525685740523253
      vertex 110.0 -5.196152422706632 2.9999999999999996
      vertex 0 -5.196152422706632 2.9999999999999996
    endloop
  endfacet
  facet normal -1.0 0.0 0.0
    outer loop
      vertex 0 0 0
      vertex 0 -5.196152422706632 2.9999999999999996
      vertex 0 -4.7601200417474105 3.6525685740523253
    endloop
  endfacet
  facet normal 1.0 0.0 0.0
    outer loop
      vertex 110.0 0 0
      vertex 110.0 -4.7601200417474105 3.6525685740523253
      vertex 110.0 -5.196152422706632 2.9999999999999996
    endloop
  endfacet
  facet normal 0.0 0.8968727415326884 -0.44228869021900125
    outer loop
      vertex 0 -5.196152422706632 2.9999999999999996
      vertex 110.0 -5.196152422706632 2.9999999999999996
      vertex 110.0 -5.54327719506772 2.2961005941905395
    endloop
  endfacet
  facet normal 0.0 0.8968727415326884 -0.44228869021900125
    outer loop
      vertex 0 -5.196152422706632 2.9999999999999996
      vertex 110.0 -5.54327719506772 2.2961005941905395
      vertex 0 -5.54327719506772 2.2961005941905395
    endloop
  endfacet
  facet normal -1.0 0.0 0.0
    outer loop
      vertex 0 0 0
      vertex 0 -5.54327719506772 2.2961005941905395
      vertex 0 -5.196152422706632 2.9999999999999996
    endloop
  endfacet
  facet normal 1.0 0.0 0.0
    outer loop
      vertex 110.0 0 0
      vertex 110.0 -5.196152422706632 2.9999999999999996
      vertex 110.0 -5.54327719506772 2.2961005941905395
    endloop
  endfacet
  facet normal 0.0 0.9469301294951055 -0.3214394653031619
    outer loop
      vertex 0 -5.54327719506772 2.2961005941905395
      vertex 110.0 -5.54327719506772 2.2961005941905395
      vertex 110.0 -5.795554957734409 1.5529142706151262
    endloop
  endfacet
  facet normal 0.0 0.9469301294951055 -0.3214394653031619
    outer loop
      vertex 0 -5.54327719506772 2.2961005941905395
      vertex 110.0 -5.795554957734409 1.5529142706151262
      vertex 0 -5.795554957734409 1.5529142706151262
    endloop
  endfacet
  facet normal -1.0 0.0 0.0
    outer loop
      vertex 0 0 0
      vertex 0 -5.795554957734409 1.5529142706151262
      vertex 0 -5.54327719506772 2.2961005941905395
    endloop
  endfacet
  facet normal 1.0 0.0 0.0
    outer loop
      vertex 110.0 0 0
      vertex 110.0 -5.54327719506772 2.2961005941905395
      vertex 110.0 -5.795554957734409 1.5529142706151262
    endloop
  endfacet
  facet normal 0.0 0.9807852804032304 -0.1950903220161286
    outer loop
      vertex 0 -5.795554957734409 1.5529142706151262
      vertex 110.0 -5.795554957734409 1.5529142706151262
      vertex 110.0 -5.948669168242862 0.7831571533203119
    endloop
  endfacet
  facet normal 0.0 0.9807852804032304 -0.1950903220161286
    outer loop
      vertex 0 -5.795554957734409 1.5529142706151262
      vertex 110.0 -5.948669168242862 0.7831571533203119
      vertex 0 -5.948669168242862 0.7831571533203119
    endloop
  endfacet
  facet normal -1.0 0.0 0.0
    outer loop
      vertex 0 0 0
      vertex 0 -5.948669168242862 0.7831571533203119
      vertex 0 -5.795554957734409 1.5529142706151262
    endloop
  endfacet
  facet normal 1.0 0.0 0.0
    outer loop
      vertex 110.0 0 0
      vertex 110.0 -5.795554957734409 1.5529142706151262
      vertex 110.0 -5.948669168242862 0.7831571533203119
    endloop
  endfacet
  facet normal 0.0 0.9978589232386035 -0.06540312923014344
    outer loop
      vertex 0 -5.948669168242862 0.7831571533203119
      vertex 110.0 -5.948669168242862 0.7831571533203119
      vertex 110.0 -6.0 7.347880794884119e-16
    endloop
  endfacet
  facet normal 0.0 0.9978589232386035 -0.06540312923014344
    outer loop
      vertex 0 -5.948669168242862 0.7831571533203119
      vertex 110.0 -6.0 7.347880794884119e-16
      vertex 0 -6.0 7.347880794884119e-16
    endloop
  endfacet
  facet normal -1.0 0.0 0.0
    outer loop
      vertex 0 0 0
      vertex 0 -6.0 7.347880794884119e-16
      vertex 0 -5.948669168242862 0.7831571533203119
    endloop
  endfacet
  facet normal 1.0 0.0 0.0
    outer loop
      vertex 110.0 0 0
      vertex 110.0 -5.948669168242862 0.7831571533203119
      vertex 110.0 -6.0 7.347880794884119e-16
    endloop
  endfacet
  facet normal -0.0 0.9978589232386035 0.06540312923014342
    outer loop
      vertex 0 -6.0 7.347880794884119e-16
      vertex 110.0 -6.0 7.347880794884119e-16
      vertex 110.0 -5.948669168242862 -0.7831571533203106
    endloop
  endfacet
  facet normal 0.0 0.9978589232386035 0.06540312923014342
    outer loop
      vertex 0 -6.0 7.347880794884119e-16
      vertex 110.0 -5.948669168242862 -0.7831571533203106
      vertex 0 -5.948669168242862 -0.7831571533203106
    endloop
  endfacet
  facet normal -1.0 -0.0 0.0
    outer loop
      vertex 0 0 0
      vertex 0 -5.948669168242862 -0.7831571533203106
      vertex 0 -6.0 7.347880794884119e-16
    endloop
  endfacet
  facet normal 1.0 0.0 0.0
    outer loop
      vertex 110.0 0 0
      vertex 110.0 -6.0 7.347880794884119e-16
      vertex 110.0 -5.948669168242862 -0.7831571533203106
    endloop
  endfacet
  facet normal -0.0 0.9807852804032307 0.1950903220161275
    outer loop
      vertex 0 -5.948669168242862 -0.7831571533203106
      vertex 110.0 -5.948669168242862 -0.7831571533203106
      vertex 110.0 -5.79555495773441 -1.5529142706151249
    endloop
  endfacet
  facet normal 0.0 0.9807852804032307 0.1950903220161275
    outer loop
      vertex 0 -5.948669168242862 -0.7831571533203106
      vertex 110.0 -5.79555495773441 -1.5529142706151249
      vertex 0 -5.79555495773441 -1.5529142706151249
    endloop
  endfacet
  facet normal -1.0 0.0 0.0
    outer loop
      vertex 0 0 0
      vertex 0 -5.79555495773441 -1.5529142706151249
      vertex 0 -5.948669168242862 -0.7831571533203106
    endloop
  endfacet
  facet normal 1.0 0.0 0.0
    outer loop
      vertex 110.0 0 0
      vertex 110.0 -5.948669168242862 -0.7831571533203106
      vertex 110.0 -5.79555495773441 -1.5529142706151249
    endloop
  endfacet
  facet normal -0.0 0.9469301294951055 0.3214394653031619
    outer loop
      vertex 0 -5.79555495773441 -1.5529142706151249
      vertex 110.0 -5.79555495773441 -1.5529142706151249
      vertex 110.0 -5.543277195067721 -2.296100594190538
    endloop
  endfacet
  facet normal 0.0 0.9469301294951055 0.3214394653031619
    outer loop
      vertex 0 -5.79555495773441 -1.5529142706151249
      vertex 110.0 -5.543277195067721 -2.296100594190538
      vertex 0 -5.543277195067721 -2.296100594190538
    endloop
  endfacet
  facet normal -1.0 0.0 0.0
    outer loop
      vertex 0 0 0
      vertex 0 -5.543277195067721 -2.296100594190538
      vertex 0 -5.79555495773441 -1.5529142706151249
    endloop
  endfacet
  facet normal 1.0 0.0 0.0
    outer loop
      vertex 110.0 0 0
      vertex 110.0 -5.79555495773441 -1.5529142706151249
      vertex 110.0 -5.543277195067721 -2.296100594190538
    endloop
  endfacet
  facet normal -0.0 0.8968727415326884 0.44228869021900097
    outer loop
      vertex 0 -5.543277195067721 -2.296100594190538
      vertex 110.0 -5.543277195067721 -2.296100594190538
      vertex 110.0 -5.196152422706633 -2.9999999999999987
    endloop
  endfacet
  facet normal 0.0 0.8968727415326884 0.44228869021900097
    outer loop
      vertex 0 -5.543277195067721 -2.296100594190538
      vertex 110.0 -5.196152422706633 -2.9999999999999987
      vertex 0 -5.196152422706633 -2.9999999999999987
    endloop
  endfacet
  facet normal -1.0 0.0 0.0
    outer loop
      vertex 0 0 0
      vertex 0 -5.196152422706633 -2.9999999999999987
      vertex 0 -5.543277195067721 -2.296100594190538
    endloop
  endfacet
  facet normal 1.0 0.0 0.0
    outer loop
      vertex 110.0 0 0
      vertex 110.0 -5.543277195067721 -2.296100594190538
      vertex 110.0 -5.196152422706633 -2.9999999999999987
    endloop
  endfacet
  facet normal -0.0 0.8314696123025456 0.555570233019602
    outer loop
      vertex 0 -5.196152422706633 -2.9999999999999987
      vertex 110.0 -5.196152422706633 -2.9999999999999987
      vertex 110.0 -4.760120041747411 -3.652568574052324
    endloop
  endfacet
  facet normal 0.0 0.8314696123025456 0.555570233019602
    outer loop
      vertex 0 -5.196152422706633 -2.9999999999999987
      vertex 110.0 -4.760120041747411 -3.652568574052324
      vertex 0 -4.760120041747411 -3.652568574052324
    endloop
  endfacet
  facet normal -1.0 0.0 0.0
    outer loop
      vertex 0 0 0
      vertex 0 -4.760120041747411 -3.652568574052324
      vertex 0 -5.196152422706633 -2.9999999999999987
    endloop
  endfacet
  facet normal 1.0 0.0 0.0
    outer loop
      vertex 110.0 0 0
      vertex 110.0 -5.196152422706633 -2.9999999999999987
      vertex 110.0 -4.760120041747411 -3.652568574052324
    endloop
  endfacet
  facet normal -0.0 0.7518398074789773 0.659345815100069
    outer loop
      vertex 0 -4.760120041747411 -3.652568574052324
      vertex 110.0 -4.760120041747411 -3.652568574052324
      vertex 110.0 -4.242640687119287 -4.242640687119283
    endloop
  endfacet
  facet normal 0.0 0.7518398074789773 0.659345815100069
    outer loop
      vertex 0 -4.760120041747411 -3.652568574052324
      vertex 110.0 -4.242640687119287 -4.242640687119283
      vertex 0 -4.242640687119287 -4.242640687119283
    endloop
  endfacet
  facet normal -1.0 0.0 0.0
    outer loop
      vertex 0 0 0
      vertex 0 -4.242640687119287 -4.242640687119283
      vertex 0 -4.760120041747411 -3.652568574052324
    endloop
  endfacet
  facet normal 1.0 0.0 0.0
    outer loop
      vertex 110.0 0 0
      vertex 110.0 -4.760120041747411 -3.652568574052324
      vertex 110.0 -4.242640687119287 -4.242640687119283
    endloop
  endfacet
  facet normal -0.0 0.659345815100069 0.7518398074789774
    outer loop
      vertex 0 -4.242640687119287 -4.242640687119283
      vertex 110.0 -4.242640687119287 -4.242640687119283
      vertex 110.0 -3.6525685740523253 -4.76012004174741
    endloop
  endfacet
  facet normal 0.0 0.659345815100069 0.7518398074789774
    outer loop
      vertex 0 -4.242640687119287 -4.242640687119283
      vertex 110.0 -3.6525685740523253 -4.76012004174741
      vertex 0 -3.6525685740523253 -4.76012004174741
    endloop
  endfacet
  facet normal -1.0 0.0 0.0
    outer loop
      vertex 0 0 0
      vertex 0 -3.6525685740523253 -4.76012004174741
      vertex 0 -4.242640687119287 -4.242640687119283
    endloop
  endfacet
  facet normal 1.0 0.0 0.0
    outer loop
      vertex 110.0 0 0
      vertex 110.0 -4.242640687119287 -4.242640687119283
      vertex 110.0 -3.6525685740523253 -4.76012004174741
    endloop
  endfacet
  facet normal -0.0 0.5555702330196027 0.8314696123025449
    outer loop
      vertex 0 -3.6525685740523253 -4.76012004174741
      vertex 110.0 -3.6525685740523253 -4.76012004174741
      vertex 110.0 -3.0000000000000027 -5.19615242270663
    endloop
  endfacet
  facet normal 0.0 0.5555702330196027 0.8314696123025449
    outer loop
      vertex 0 -3.6525685740523253 -4.76012004174741
      vertex 110.0 -3.0000000000000027 -5.19615242270663
      vertex 0 -3.0000000000000027 -5.19615242270663
    endloop
  endfacet
  facet normal -1.0 0.0 0.0
    outer loop
      vertex 0 0 0
      vertex 0 -3.0000000000000027 -5.19615242270663
      vertex 0 -3.6525685740523253 -4.76012004174741
    endloop
  endfacet
  facet normal 1.0 0.0 0.0
    outer loop
      vertex 110.0 0 0
      vertex 110.0 -3.6525685740523253 -4.76012004174741
      vertex 110.0 -3.0000000000000027 -5.19615242270663
    endloop
  endfacet
  facet normal -0.0 0.4422886902190011 0.8968727415326885
    outer loop
      vertex 0 -3.0000000000000027 -5.19615242270663
      vertex 110.0 -3.0000000000000027 -5.19615242270663
      vertex 110.0 -2.296100594190537 -5.543277195067721
    endloop
  endfacet
  facet normal 0.0 0.4422886902190011 0.8968727415326885
    outer loop
      vertex 0 -3.0000000000000027 -5.19615242270663
      vertex 110.0 -2.296100594190537 -5.543277195067721
      vertex 0 -2.296100594190537 -5.543277195067721
    endloop
  endfacet
  facet normal -1.0 0.0 0.0
    outer loop
      vertex 0 0 0
      vertex 0 -2.296100594190537 -5.543277195067721
      vertex 0 -3.0000000000000027 -5.19615242270663
    endloop
  endfacet
  facet normal 1.0 0.0 0.0
    outer loop
      vertex 110.0 0 0
      vertex 110.0 -3.0000000000000027 -5.19615242270663
      vertex 110.0 -2.296100594190537 -5.543277195067721
    endloop
  endfacet
  facet normal -0.0 0.321439465303162 0.9469301294951055
    outer loop
      vertex 0 -2.296100594190537 -5.543277195067721
      vertex 110.0 -2.296100594190537 -5.543277195067721
      vertex 110.0 -1.5529142706151238 -5.79555495773441
    endloop
  endfacet
  facet normal 0.0 0.321439465303162 0.9469301294951055
    outer loop
      vertex 0 -2.296100594190537 -5.543277195067721
      vertex 110.0 -1.5529142706151238 -5.79555495773441
      vertex 0 -1.5529142706151238 -5.79555495773441
    endloop
  endfacet
  facet normal -1.0 0.0 0.0
    outer loop
      vertex 0 0 0
      vertex 0 -1.5529142706151238 -5.79555495773441
      vertex 0 -2.296100594190537 -5.543277195067721
    endloop
  endfacet
  facet normal 1.0 0.0 0.0
    outer loop
      vertex 110.0 0 0
      vertex 110.0 -2.296100594190537 -5.543277195067721
      vertex 110.0 -1.5529142706151238 -5.79555495773441
    endloop
  endfacet
  facet normal -0.0 0.1950903220161276 0.9807852804032307
    outer loop
      vertex 0 -1.5529142706151238 -5.79555495773441
      vertex 110.0 -1.5529142706151238 -5.79555495773441
      vertex 110.0 -0.7831571533203098 -5.948669168242862
    endloop
  endfacet
  facet normal 0.0 0.1950903220161276 0.9807852804032307
    outer loop
      vertex 0 -1.5529142706151238 -5.79555495773441
      vertex 110.0 -0.7831571533203098 -5.948669168242862
      vertex 0 -0.7831571533203098 -5.948669168242862
    endloop
  endfacet
  facet normal -1.0 0.0 0.0
    outer loop
      vertex 0 0 0
      vertex 0 -0.7831571533203098 -5.948669168242862
      vertex 0 -1.5529142706151238 -5.79555495773441
    endloop
  endfacet
  facet normal 1.0 0.0 0.0
    outer loop
      vertex 110.0 0 0
      vertex 110.0 -1.5529142706151238 -5.79555495773441
      vertex 110.0 -0.7831571533203098 -5.948669168242862
    endloop
  endfacet
  facet normal -0.0 0.06540312923014364 0.9978589232386035
    outer loop
      vertex 0 -0.7831571533203098 -5.948669168242862
      vertex 110.0 -0.7831571533203098 -5.948669168242862
      vertex 110.0 -1.102182119232618e-15 -6.0
    endloop
  endfacet
  facet normal 0.0 0.06540312923014364 0.9978589232386035
    outer loop
      vertex 0 -0.7831571533203098 -5.948669168242862
      vertex 110.0 -1.102182119232618e-15 -6.0
      vertex 0 -1.102182119232618e-15 -6.0
    endloop
  endfacet
  facet normal -1.0 0.0 0.0
    outer loop
      vertex 0 0 0
      vertex 0 -1.102182119232618e-15 -6.0
      vertex 0 -0.7831571533203098 -5.948669168242862
    endloop
  endfacet
  facet normal 1.0 0.0 0.0
    outer loop
      vertex 110.0 0 0
      vertex 110.0 -0.7831571533203098 -5.948669168242862
      vertex 110.0 -1.102182119232618e-15 -6.0
    endloop
  endfacet
  facet normal 0.0 -0.0654031292301425 0.9978589232386035
    outer loop
      vertex 0 -1.102182119232618e-15 -6.0
      vertex 110.0 -1.102182119232618e-15 -6.0
      vertex 110.0 0.7831571533203077 -5.948669168242863
    endloop
  endfacet
  facet normal 0.0 -0.0654031292301425 0.9978589232386035
    outer loop
      vertex 0 -1.102182119232618e-15 -6.0
      vertex 110.0 0.7831571533203077 -5.948669168242863
      vertex 0 0.7831571533203077 -5.948669168242863
    endloop
  endfacet
  facet normal -1.0 0.0 -0.0
    outer loop
      vertex 0 0 0
      vertex 0 0.7831571533203077 -5.948669168242863
      vertex 0 -1.102182119232618e-15 -6.0
    endloop
  endfacet
  facet normal 1.0 0.0 0.0
    outer loop
      vertex 110.0 0 0
      vertex 110.0 -1.102182119232618e-15 -6.0
      vertex 110.0 0.7831571533203077 -5.948669168242863
    endloop
  endfacet
  facet normal 0.0 -0.1950903220161287 0.9807852804032304
    outer loop
      vertex 0 0.7831571533203077 -5.948669168242863
      vertex 110.0 0.7831571533203077 -5.948669168242863
      vertex 110.0 1.5529142706151218 -5.79555495773441
    endloop
  endfacet
  facet normal 0.0 -0.1950903220161287 0.9807852804032304
    outer loop
      vertex 0 0.7831571533203077 -5.948669168242863
      vertex 110.0 1.5529142706151218 -5.79555495773441
      vertex 0 1.5529142706151218 -5.79555495773441
    endloop
  endfacet
  facet normal -1.0 0.0 0.0
    outer loop
      vertex 0 0 0
      vertex 0 1.5529142706151218 -5.79555495773441
      vertex 0 0.7831571533203077 -5.948669168242863
    endloop
  endfacet
  facet normal 1.0 0.0 0.0
    outer loop
      vertex 110.0 0 0
      vertex 110.0 0.7831571533203077 -5.948669168242863
      vertex 110.0 1.5529142706151218 -5.79555495773441
    endloop
  endfacet
  facet normal 0.0 -0.3214394653031609 0.9469301294951058
    outer loop
      vertex 0 1.5529142706151218 -5.79555495773441
      vertex 110.0 1.5529142706151218 -5.79555495773441
      vertex 110.0 2.296100594190535 -5.543277195067722
    endloop
  endfacet
  facet normal 0.0 -0.3214394653031609 0.9469301294951058
    outer loop
      vertex 0 1.5529142706151218 -5.79555495773441
      vertex 110.0 2.296100594190535 -5.543277195067722
      vertex 0 2.296100594190535 -5.543277195067722
    endloop
  endfacet
  facet normal -1.0 0.0 0.0
    outer loop
      vertex 0 0 0
      vertex 0 2.296100594190535 -5.543277195067722
      vertex 0 1.5529142706151218 -5.79555495773441
    endloop
  endfacet
  facet normal 1.0 0.0 0.0
    outer loop
      vertex 110.0 0 0
      vertex 110.0 1.5529142706151218 -5.79555495773441
      vertex 110.0 2.296100594190535 -5.543277195067722
    endloop
  endfacet
  facet normal 0.0 -0.44228869021900014 0.8968727415326889
    outer loop
      vertex 0 2.296100594190535 -5.543277195067722
      vertex 110.0 2.296100594190535 -5.543277195067722
      vertex 110.0 3.000000000000001 -5.196152422706632
    endloop
  endfacet
  facet normal 0.0 -0.44228869021900014 0.8968727415326889
    outer loop
      vertex 0 2.296100594190535 -5.543277195067722
      vertex 110.0 3.000000000000001 -5.196152422706632
      vertex 0 3.000000000000001 -5.196152422706632
    endloop
  endfacet
  facet normal -1.0 0.0 0.0
    outer loop
      vertex 0 0 0
      vertex 0 3.000000000000001 -5.196152422706632
      vertex 0 2.296100594190535 -5.543277195067722
    endloop
  endfacet
  facet normal 1.0 0.0 0.0
    outer loop
      vertex 110.0 0 0
      vertex 110.0 2.296100594190535 -5.543277195067722
      vertex 110.0 3.000000000000001 -5.196152422706632
    endloop
  endfacet
  facet normal 0.0 -0.5555702330196028 0.8314696123025447
    outer loop
      vertex 0 3.000000000000001 -5.196152422706632
      vertex 110.0 3.000000000000001 -5.196152422706632
      vertex 110.0 3.652568574052319 -4.760120041747414
    endloop
  endfacet
  facet normal 0.0 -0.5555702330196028 0.8314696123025447
    outer loop
      vertex 0 3.000000000000001 -5.196152422706632
      vertex 110.0 3.652568574052319 -4.760120041747414
      vertex 0 3.652568574052319 -4.760120041747414
    endloop
  endfacet
  facet normal -1.0 0.0 0.0
    outer loop
      vertex 0 0 0
      vertex 0 3.652568574052319 -4.760120041747414
      vertex 0 3.000000000000001 -5.196152422706632
    endloop
  endfacet
  facet normal 1.0 0.0 0.0
    outer loop
      vertex 110.0 0 0
      vertex 110.0 3.000000000000001 -5.196152422706632
      vertex 110.0 3.652568574052319 -4.760120041747414
    endloop
  endfacet
  facet normal 0.0 -0.6593458151000685 0.7518398074789777
    outer loop
      vertex 0 3.652568574052319 -4.760120041747414
      vertex 110.0 3.652568574052319 -4.760120041747414
      vertex 110.0 4.242640687119284 -4.242640687119286
    endloop
  endfacet
  facet normal 0.0 -0.6593458151000685 0.7518398074789777
    outer loop
      vertex 0 3.652568574052319 -4.760120041747414
      vertex 110.0 4.242640687119284 -4.242640687119286
      vertex 0 4.242640687119284 -4.242640687119286
    endloop
  endfacet
  facet normal -1.0 0.0 0.0
    outer loop
      vertex 0 0 0
      vertex 0 4.242640687119284 -4.242640687119286
      vertex 0 3.652568574052319 -4.760120041747414
    endloop
  endfacet
  facet normal 1.0 0.0 0.0
    outer loop
      vertex 110.0 0 0
      vertex 110.0 3.652568574052319 -4.760120041747414
      vertex 110.0 4.242640687119284 -4.242640687119286
    endloop
  endfacet
  facet normal 0.0 -0.7518398074789769 0.6593458151000694
    outer loop
      vertex 0 4.242640687119284 -4.242640687119286
      vertex 110.0 4.242640687119284 -4.242640687119286
      vertex 110.0 4.76012004174741 -3.6525685740523253
    endloop
  endfacet
  facet normal 0.0 -0.7518398074789769 0.6593458151000694
    outer loop
      vertex 0 4.242640687119284 -4.242640687119286
      vertex 110.0 4.76012004174741 -3.6525685740523253
      vertex 0 4.76012004174741 -3.6525685740523253
    endloop
  endfacet
  facet normal -1.0 0.0 0.0
    outer loop
      vertex 0 0 0
      vertex 0 4.76012004174741 -3.6525685740523253
      vertex 0 4.242640687119284 -4.242640687119286
    endloop
  endfacet
  facet normal 1.0 0.0 0.0
    outer loop
      vertex 110.0 0 0
      vertex 110.0 4.242640687119284 -4.242640687119286
      vertex 110.0 4.76012004174741 -3.6525685740523253
    endloop
  endfacet
  facet normal 0.0 -0.8314696123025449 0.5555702330196027
    outer loop
      vertex 0 4.76012004174741 -3.6525685740523253
      vertex 110.0 4.76012004174741 -3.6525685740523253
      vertex 110.0 5.19615242270663 -3.0000000000000027
    endloop
  endfacet
  facet normal 0.0 -0.8314696123025449 0.5555702330196027
    outer loop
      vertex 0 4.76012004174741 -3.6525685740523253
      vertex 110.0 5.19615242270663 -3.0000000000000027
      vertex 0 5.19615242270663 -3.0000000000000027
    endloop
  endfacet
  facet normal -1.0 0.0 0.0
    outer loop
      vertex 0 0 0
      vertex 0 5.19615242270663 -3.0000000000000027
      vertex 0 4.76012004174741 -3.6525685740523253
    endloop
  endfacet
  facet normal 1.0 0.0 0.0
    outer loop
      vertex 110.0 0 0
      vertex 110.0 4.76012004174741 -3.6525685740523253
      vertex 110.0 5.19615242270663 -3.0000000000000027
    endloop
  endfacet
  facet normal 0.0 -0.8968727415326884 0.4422886902190012
    outer loop
      vertex 0 5.19615242270663 -3.0000000000000027
      vertex 110.0 5.19615242270663 -3.0000000000000027
      vertex 110.0 5.543277195067721 -2.2961005941905372
    endloop
  endfacet
  facet normal 0.0 -0.8968727415326884 0.4422886902190012
    outer loop
      vertex 0 5.19615242270663 -3.0000000000000027
      vertex 110.0 5.543277195067721 -2.2961005941905372
      vertex 0 5.543277195067721 -2.2961005941905372
    endloop
  endfacet
  facet normal -1.0 0.0 0.0
    outer loop
      vertex 0 0 0
      vertex 0 5.543277195067721 -2.2961005941905372
      vertex 0 5.19615242270663 -3.0000000000000027
    endloop
  endfacet
  facet normal 1.0 0.0 0.0
    outer loop
      vertex 110.0 0 0
      vertex 110.0 5.19615242270663 -3.0000000000000027
      vertex 110.0 5.543277195067721 -2.2961005941905372
    endloop
  endfacet
  facet normal 0.0 -0.9469301294951055 0.321439465303162
    outer loop
      vertex 0 5.543277195067721 -2.2961005941905372
      vertex 110.0 5.543277195067721 -2.2961005941905372
      vertex 110.0 5.795554957734408 -1.5529142706151293
    endloop
  endfacet
  facet normal 0.0 -0.9469301294951055 0.321439465303162
    outer loop
      vertex 0 5.543277195067721 -2.2961005941905372
      vertex 110.0 5.795554957734408 -1.5529142706151293
      vertex 0 5.795554957734408 -1.5529142706151293
    endloop
  endfacet
  facet normal -1.0 0.0 0.0
    outer loop
      vertex 0 0 0
      vertex 0 5.795554957734408 -1.5529142706151293
      vertex 0 5.543277195067721 -2.2961005941905372
    endloop
  endfacet
  facet normal 1.0 0.0 0.0
    outer loop
      vertex 110.0 0 0
      vertex 110.0 5.543277195067721 -2.2961005941905372
      vertex 110.0 5.795554957734408 -1.5529142706151293
    endloop
  endfacet
  facet normal 0.0 -0.9807852804032304 0.19509032201612847
    outer loop
      vertex 0 5.795554957734408 -1.5529142706151293
      vertex 110.0 5.795554957734408 -1.5529142706151293
      vertex 110.0 5.948669168242862 -0.7831571533203101
    endloop
  endfacet
  facet normal 0.0 -0.9807852804032304 0.19509032201612847
    outer loop
      vertex 0 5.795554957734408 -1.5529142706151293
      vertex 110.0 5.948669168242862 -0.7831571533203101
      vertex 0 5.948669168242862 -0.7831571533203101
    endloop
  endfacet
  facet normal -1.0 0.0 0.0
    outer loop
      vertex 0 0 0
      vertex 0 5.948669168242862 -0.7831571533203101
      vertex 0 5.795554957734408 -1.5529142706151293
    endloop
  endfacet
  facet normal 1.0 0.0 0.0
    outer loop
      vertex 110.0 0 0
      vertex 110.0 5.795554957734408 -1.5529142706151293
      vertex 110.0 5.948669168242862 -0.7831571533203101
    endloop
  endfacet
  facet normal 0.0 -0.9978589232386035 0.06540312923014364
    outer loop
      vertex 0 5.948669168242862 -0.7831571533203101
      vertex 110.0 5.948669168242862 -0.7831571533203101
      vertex 110.0 6.0 -1.4695761589768238e-15
    endloop
  endfacet
  facet normal 0.0 -0.9978589232386035 0.06540312923014364
    outer loop
      vertex 0 5.948669168242862 -0.7831571533203101
      vertex 110.0 6.0 -1.4695761589768238e-15
      vertex 0 6.0 -1.4695761589768238e-15
    endloop
  endfacet
  facet normal -1.0 0.0 0.0
    outer loop
      vertex 0 0 0
      vertex 0 6.0 -1.4695761589768238e-15
      vertex 0 5.948669168242862 -0.7831571533203101
    endloop
  endfacet
  facet normal 1.0 0.0 0.0
    outer loop
      vertex 110.0 0 0
      vertex 110.0 5.948669168242862 -0.7831571533203101
      vertex 110.0 6.0 -1.4695761589768238e-15
    endloop
  endfacet
endsolid CTC5
