ISO-10303-21;
HEADER;
/* Generated by software containing ST-Developer
 * from STEP Tools, Inc. (www.steptools.com) 
 */

FILE_DESCRIPTION(
/* description */ (''),
/* implementation_level */ '2;1');

FILE_NAME(
/* name */ 'MY-ZJ-3030.step',
/* time_stamp */ '2024-08-21T07:03:47+02:00',
/* author */ (''),
/* organization */ (''),
/* preprocessor_version */ 'ST-DEVELOPER v20',
/* originating_system */ 'Autodesk Translation Framework v13.14.0.145',

/* authorisation */ '');

FILE_SCHEMA (('AUTOMOTIVE_DESIGN { 1 0 10303 214 3 1 1 }'));
ENDSEC;

DATA;
#10=MECHANICAL_DESIGN_GEOMETRIC_PRESENTATION_REPRESENTATION('',(#13),#731);
#11=SHAPE_REPRESENTATION_RELATIONSHIP('SRR','None',#738,#12);
#12=ADVANCED_BREP_SHAPE_REPRESENTATION('',(#14),#730);
#13=STYLED_ITEM('',(#747),#14);
#14=MANIFOLD_SOLID_BREP('Body1',#427);
#15=CYLINDRICAL_SURFACE('',#451,3.35);
#16=CYLINDRICAL_SURFACE('',#455,0.5);
#17=CYLINDRICAL_SURFACE('',#458,0.5);
#18=CYLINDRICAL_SURFACE('',#461,0.5);
#19=CYLINDRICAL_SURFACE('',#464,0.5);
#20=CYLINDRICAL_SURFACE('',#467,0.5);
#21=CYLINDRICAL_SURFACE('',#483,0.75);
#22=CYLINDRICAL_SURFACE('',#484,0.5);
#23=FACE_BOUND('',#75,.T.);
#24=FACE_BOUND('',#80,.T.);
#25=FACE_BOUND('',#88,.T.);
#26=FACE_BOUND('',#89,.T.);
#27=FACE_BOUND('',#90,.T.);
#28=FACE_BOUND('',#91,.T.);
#29=FACE_BOUND('',#98,.T.);
#30=FACE_BOUND('',#99,.T.);
#31=FACE_BOUND('',#100,.T.);
#32=FACE_BOUND('',#101,.T.);
#33=PLANE('',#444);
#34=PLANE('',#448);
#35=PLANE('',#450);
#36=PLANE('',#453);
#37=PLANE('',#454);
#38=PLANE('',#470);
#39=PLANE('',#471);
#40=PLANE('',#472);
#41=PLANE('',#473);
#42=PLANE('',#474);
#43=PLANE('',#475);
#44=PLANE('',#478);
#45=PLANE('',#481);
#46=PLANE('',#482);
#47=FACE_OUTER_BOUND('',#71,.T.);
#48=FACE_OUTER_BOUND('',#72,.T.);
#49=FACE_OUTER_BOUND('',#73,.T.);
#50=FACE_OUTER_BOUND('',#74,.T.);
#51=FACE_OUTER_BOUND('',#76,.T.);
#52=FACE_OUTER_BOUND('',#77,.T.);
#53=FACE_OUTER_BOUND('',#78,.T.);
#54=FACE_OUTER_BOUND('',#79,.T.);
#55=FACE_OUTER_BOUND('',#81,.T.);
#56=FACE_OUTER_BOUND('',#82,.T.);
#57=FACE_OUTER_BOUND('',#83,.T.);
#58=FACE_OUTER_BOUND('',#84,.T.);
#59=FACE_OUTER_BOUND('',#85,.T.);
#60=FACE_OUTER_BOUND('',#86,.T.);
#61=FACE_OUTER_BOUND('',#87,.T.);
#62=FACE_OUTER_BOUND('',#92,.T.);
#63=FACE_OUTER_BOUND('',#93,.T.);
#64=FACE_OUTER_BOUND('',#94,.T.);
#65=FACE_OUTER_BOUND('',#95,.T.);
#66=FACE_OUTER_BOUND('',#96,.T.);
#67=FACE_OUTER_BOUND('',#97,.T.);
#68=FACE_OUTER_BOUND('',#102,.T.);
#69=FACE_OUTER_BOUND('',#103,.T.);
#70=FACE_OUTER_BOUND('',#104,.T.);
#71=EDGE_LOOP('',(#289,#290,#291,#292));
#72=EDGE_LOOP('',(#293));
#73=EDGE_LOOP('',(#294,#295,#296,#297));
#74=EDGE_LOOP('',(#298,#299,#300,#301,#302,#303));
#75=EDGE_LOOP('',(#304));
#76=EDGE_LOOP('',(#305));
#77=EDGE_LOOP('',(#306,#307,#308,#309));
#78=EDGE_LOOP('',(#310,#311,#312,#313));
#79=EDGE_LOOP('',(#314,#315,#316,#317,#318,#319));
#80=EDGE_LOOP('',(#320));
#81=EDGE_LOOP('',(#321,#322,#323,#324));
#82=EDGE_LOOP('',(#325,#326,#327,#328));
#83=EDGE_LOOP('',(#329,#330,#331,#332));
#84=EDGE_LOOP('',(#333,#334,#335,#336));
#85=EDGE_LOOP('',(#337,#338,#339,#340));
#86=EDGE_LOOP('',(#341,#342,#343,#344));
#87=EDGE_LOOP('',(#345,#346,#347,#348,#349,#350));
#88=EDGE_LOOP('',(#351));
#89=EDGE_LOOP('',(#352));
#90=EDGE_LOOP('',(#353));
#91=EDGE_LOOP('',(#354));
#92=EDGE_LOOP('',(#355,#356,#357,#358));
#93=EDGE_LOOP('',(#359,#360,#361,#362));
#94=EDGE_LOOP('',(#363,#364,#365,#366));
#95=EDGE_LOOP('',(#367,#368,#369,#370,#371,#372));
#96=EDGE_LOOP('',(#373,#374,#375,#376,#377,#378));
#97=EDGE_LOOP('',(#379,#380,#381,#382,#383,#384));
#98=EDGE_LOOP('',(#385));
#99=EDGE_LOOP('',(#386));
#100=EDGE_LOOP('',(#387));
#101=EDGE_LOOP('',(#388));
#102=EDGE_LOOP('',(#389,#390,#391,#392));
#103=EDGE_LOOP('',(#393,#394,#395,#396));
#104=EDGE_LOOP('',(#397,#398,#399,#400));
#105=LINE('',#616,#141);
#106=LINE('',#623,#142);
#107=LINE('',#630,#143);
#108=LINE('',#632,#144);
#109=LINE('',#634,#145);
#110=LINE('',#636,#146);
#111=LINE('',#637,#147);
#112=LINE('',#643,#148);
#113=LINE('',#644,#149);
#114=LINE('',#647,#150);
#115=LINE('',#648,#151);
#116=LINE('',#651,#152);
#117=LINE('',#653,#153);
#118=LINE('',#655,#154);
#119=LINE('',#656,#155);
#120=LINE('',#661,#156);
#121=LINE('',#667,#157);
#122=LINE('',#673,#158);
#123=LINE('',#678,#159);
#124=LINE('',#682,#160);
#125=LINE('',#688,#161);
#126=LINE('',#692,#162);
#127=LINE('',#694,#163);
#128=LINE('',#695,#164);
#129=LINE('',#698,#165);
#130=LINE('',#700,#166);
#131=LINE('',#702,#167);
#132=LINE('',#703,#168);
#133=LINE('',#705,#169);
#134=LINE('',#707,#170);
#135=LINE('',#708,#171);
#136=LINE('',#712,#172);
#137=LINE('',#719,#173);
#138=LINE('',#720,#174);
#139=LINE('',#723,#175);
#140=LINE('',#724,#176);
#141=VECTOR('',#491,1.8);
#142=VECTOR('',#500,2.225);
#143=VECTOR('',#507,10.);
#144=VECTOR('',#508,10.);
#145=VECTOR('',#509,10.);
#146=VECTOR('',#510,10.);
#147=VECTOR('',#511,10.);
#148=VECTOR('',#518,10.);
#149=VECTOR('',#519,10.);
#150=VECTOR('',#522,10.);
#151=VECTOR('',#523,10.);
#152=VECTOR('',#526,10.);
#153=VECTOR('',#527,10.);
#154=VECTOR('',#528,10.);
#155=VECTOR('',#529,10.);
#156=VECTOR('',#534,0.5);
#157=VECTOR('',#541,0.5);
#158=VECTOR('',#548,0.5);
#159=VECTOR('',#553,10.);
#160=VECTOR('',#556,10.);
#161=VECTOR('',#563,0.5);
#162=VECTOR('',#568,10.);
#163=VECTOR('',#569,10.);
#164=VECTOR('',#570,10.);
#165=VECTOR('',#573,10.);
#166=VECTOR('',#574,10.);
#167=VECTOR('',#575,10.);
#168=VECTOR('',#576,10.);
#169=VECTOR('',#579,10.);
#170=VECTOR('',#582,10.);
#171=VECTOR('',#583,10.);
#172=VECTOR('',#588,10.);
#173=VECTOR('',#597,10.);
#174=VECTOR('',#598,10.);
#175=VECTOR('',#603,10.);
#176=VECTOR('',#604,10.);
#177=CIRCLE('',#442,2.1);
#178=CIRCLE('',#443,1.5);
#179=CIRCLE('',#446,2.525);
#180=CIRCLE('',#447,1.925);
#181=CIRCLE('',#449,3.35);
#182=CIRCLE('',#452,3.35);
#183=CIRCLE('',#456,0.5);
#184=CIRCLE('',#457,0.5);
#185=CIRCLE('',#459,0.5);
#186=CIRCLE('',#460,0.5);
#187=CIRCLE('',#462,0.5);
#188=CIRCLE('',#463,0.5);
#189=CIRCLE('',#465,0.5);
#190=CIRCLE('',#466,0.5);
#191=CIRCLE('',#468,0.5);
#192=CIRCLE('',#469,0.5);
#193=CIRCLE('',#476,0.5);
#194=CIRCLE('',#477,0.75);
#195=CIRCLE('',#479,0.5);
#196=CIRCLE('',#480,0.75);
#197=VERTEX_POINT('',#613);
#198=VERTEX_POINT('',#615);
#199=VERTEX_POINT('',#620);
#200=VERTEX_POINT('',#622);
#201=VERTEX_POINT('',#626);
#202=VERTEX_POINT('',#627);
#203=VERTEX_POINT('',#629);
#204=VERTEX_POINT('',#631);
#205=VERTEX_POINT('',#633);
#206=VERTEX_POINT('',#635);
#207=VERTEX_POINT('',#640);
#208=VERTEX_POINT('',#641);
#209=VERTEX_POINT('',#646);
#210=VERTEX_POINT('',#650);
#211=VERTEX_POINT('',#652);
#212=VERTEX_POINT('',#654);
#213=VERTEX_POINT('',#658);
#214=VERTEX_POINT('',#660);
#215=VERTEX_POINT('',#664);
#216=VERTEX_POINT('',#666);
#217=VERTEX_POINT('',#670);
#218=VERTEX_POINT('',#672);
#219=VERTEX_POINT('',#676);
#220=VERTEX_POINT('',#677);
#221=VERTEX_POINT('',#679);
#222=VERTEX_POINT('',#681);
#223=VERTEX_POINT('',#685);
#224=VERTEX_POINT('',#687);
#225=VERTEX_POINT('',#691);
#226=VERTEX_POINT('',#693);
#227=VERTEX_POINT('',#697);
#228=VERTEX_POINT('',#699);
#229=VERTEX_POINT('',#701);
#230=VERTEX_POINT('',#711);
#231=VERTEX_POINT('',#716);
#232=VERTEX_POINT('',#718);
#233=EDGE_CURVE('',#197,#197,#177,.T.);
#234=EDGE_CURVE('',#197,#198,#105,.T.);
#235=EDGE_CURVE('',#198,#198,#178,.T.);
#236=EDGE_CURVE('',#199,#199,#179,.T.);
#237=EDGE_CURVE('',#199,#200,#106,.T.);
#238=EDGE_CURVE('',#200,#200,#180,.T.);
#239=EDGE_CURVE('',#201,#202,#181,.T.);
#240=EDGE_CURVE('',#203,#201,#107,.T.);
#241=EDGE_CURVE('',#204,#203,#108,.T.);
#242=EDGE_CURVE('',#205,#204,#109,.T.);
#243=EDGE_CURVE('',#206,#205,#110,.T.);
#244=EDGE_CURVE('',#202,#206,#111,.T.);
#245=EDGE_CURVE('',#207,#208,#182,.T.);
#246=EDGE_CURVE('',#208,#201,#112,.T.);
#247=EDGE_CURVE('',#202,#207,#113,.T.);
#248=EDGE_CURVE('',#208,#209,#114,.T.);
#249=EDGE_CURVE('',#203,#209,#115,.T.);
#250=EDGE_CURVE('',#210,#207,#116,.T.);
#251=EDGE_CURVE('',#211,#210,#117,.T.);
#252=EDGE_CURVE('',#212,#211,#118,.T.);
#253=EDGE_CURVE('',#209,#212,#119,.T.);
#254=EDGE_CURVE('',#213,#213,#183,.T.);
#255=EDGE_CURVE('',#213,#214,#120,.T.);
#256=EDGE_CURVE('',#214,#214,#184,.T.);
#257=EDGE_CURVE('',#215,#215,#185,.T.);
#258=EDGE_CURVE('',#215,#216,#121,.T.);
#259=EDGE_CURVE('',#216,#216,#186,.T.);
#260=EDGE_CURVE('',#217,#217,#187,.T.);
#261=EDGE_CURVE('',#217,#218,#122,.T.);
#262=EDGE_CURVE('',#218,#218,#188,.T.);
#263=EDGE_CURVE('',#219,#220,#123,.T.);
#264=EDGE_CURVE('',#221,#219,#189,.T.);
#265=EDGE_CURVE('',#222,#221,#124,.T.);
#266=EDGE_CURVE('',#220,#222,#190,.T.);
#267=EDGE_CURVE('',#223,#223,#191,.T.);
#268=EDGE_CURVE('',#223,#224,#125,.T.);
#269=EDGE_CURVE('',#224,#224,#192,.T.);
#270=EDGE_CURVE('',#225,#221,#126,.T.);
#271=EDGE_CURVE('',#225,#226,#127,.T.);
#272=EDGE_CURVE('',#222,#226,#128,.T.);
#273=EDGE_CURVE('',#226,#227,#129,.T.);
#274=EDGE_CURVE('',#228,#227,#130,.T.);
#275=EDGE_CURVE('',#228,#229,#131,.T.);
#276=EDGE_CURVE('',#229,#220,#132,.T.);
#277=EDGE_CURVE('',#204,#212,#133,.T.);
#278=EDGE_CURVE('',#210,#206,#134,.T.);
#279=EDGE_CURVE('',#211,#205,#135,.T.);
#280=EDGE_CURVE('',#230,#225,#136,.T.);
#281=EDGE_CURVE('',#211,#230,#193,.T.);
#282=EDGE_CURVE('',#227,#205,#194,.T.);
#283=EDGE_CURVE('',#231,#212,#195,.T.);
#284=EDGE_CURVE('',#232,#231,#137,.T.);
#285=EDGE_CURVE('',#229,#232,#138,.T.);
#286=EDGE_CURVE('',#204,#228,#196,.T.);
#287=EDGE_CURVE('',#219,#232,#139,.T.);
#288=EDGE_CURVE('',#230,#231,#140,.T.);
#289=ORIENTED_EDGE('',*,*,#233,.F.);
#290=ORIENTED_EDGE('',*,*,#234,.T.);
#291=ORIENTED_EDGE('',*,*,#235,.T.);
#292=ORIENTED_EDGE('',*,*,#234,.F.);
#293=ORIENTED_EDGE('',*,*,#235,.F.);
#294=ORIENTED_EDGE('',*,*,#236,.T.);
#295=ORIENTED_EDGE('',*,*,#237,.T.);
#296=ORIENTED_EDGE('',*,*,#238,.F.);
#297=ORIENTED_EDGE('',*,*,#237,.F.);
#298=ORIENTED_EDGE('',*,*,#239,.F.);
#299=ORIENTED_EDGE('',*,*,#240,.F.);
#300=ORIENTED_EDGE('',*,*,#241,.F.);
#301=ORIENTED_EDGE('',*,*,#242,.F.);
#302=ORIENTED_EDGE('',*,*,#243,.F.);
#303=ORIENTED_EDGE('',*,*,#244,.F.);
#304=ORIENTED_EDGE('',*,*,#236,.F.);
#305=ORIENTED_EDGE('',*,*,#238,.T.);
#306=ORIENTED_EDGE('',*,*,#245,.T.);
#307=ORIENTED_EDGE('',*,*,#246,.T.);
#308=ORIENTED_EDGE('',*,*,#239,.T.);
#309=ORIENTED_EDGE('',*,*,#247,.T.);
#310=ORIENTED_EDGE('',*,*,#246,.F.);
#311=ORIENTED_EDGE('',*,*,#248,.T.);
#312=ORIENTED_EDGE('',*,*,#249,.F.);
#313=ORIENTED_EDGE('',*,*,#240,.T.);
#314=ORIENTED_EDGE('',*,*,#245,.F.);
#315=ORIENTED_EDGE('',*,*,#250,.F.);
#316=ORIENTED_EDGE('',*,*,#251,.F.);
#317=ORIENTED_EDGE('',*,*,#252,.F.);
#318=ORIENTED_EDGE('',*,*,#253,.F.);
#319=ORIENTED_EDGE('',*,*,#248,.F.);
#320=ORIENTED_EDGE('',*,*,#233,.T.);
#321=ORIENTED_EDGE('',*,*,#254,.F.);
#322=ORIENTED_EDGE('',*,*,#255,.T.);
#323=ORIENTED_EDGE('',*,*,#256,.F.);
#324=ORIENTED_EDGE('',*,*,#255,.F.);
#325=ORIENTED_EDGE('',*,*,#257,.F.);
#326=ORIENTED_EDGE('',*,*,#258,.T.);
#327=ORIENTED_EDGE('',*,*,#259,.F.);
#328=ORIENTED_EDGE('',*,*,#258,.F.);
#329=ORIENTED_EDGE('',*,*,#260,.F.);
#330=ORIENTED_EDGE('',*,*,#261,.T.);
#331=ORIENTED_EDGE('',*,*,#262,.F.);
#332=ORIENTED_EDGE('',*,*,#261,.F.);
#333=ORIENTED_EDGE('',*,*,#263,.F.);
#334=ORIENTED_EDGE('',*,*,#264,.F.);
#335=ORIENTED_EDGE('',*,*,#265,.F.);
#336=ORIENTED_EDGE('',*,*,#266,.F.);
#337=ORIENTED_EDGE('',*,*,#267,.F.);
#338=ORIENTED_EDGE('',*,*,#268,.T.);
#339=ORIENTED_EDGE('',*,*,#269,.F.);
#340=ORIENTED_EDGE('',*,*,#268,.F.);
#341=ORIENTED_EDGE('',*,*,#265,.T.);
#342=ORIENTED_EDGE('',*,*,#270,.F.);
#343=ORIENTED_EDGE('',*,*,#271,.T.);
#344=ORIENTED_EDGE('',*,*,#272,.F.);
#345=ORIENTED_EDGE('',*,*,#266,.T.);
#346=ORIENTED_EDGE('',*,*,#272,.T.);
#347=ORIENTED_EDGE('',*,*,#273,.T.);
#348=ORIENTED_EDGE('',*,*,#274,.F.);
#349=ORIENTED_EDGE('',*,*,#275,.T.);
#350=ORIENTED_EDGE('',*,*,#276,.T.);
#351=ORIENTED_EDGE('',*,*,#267,.T.);
#352=ORIENTED_EDGE('',*,*,#260,.T.);
#353=ORIENTED_EDGE('',*,*,#257,.T.);
#354=ORIENTED_EDGE('',*,*,#254,.T.);
#355=ORIENTED_EDGE('',*,*,#241,.T.);
#356=ORIENTED_EDGE('',*,*,#249,.T.);
#357=ORIENTED_EDGE('',*,*,#253,.T.);
#358=ORIENTED_EDGE('',*,*,#277,.F.);
#359=ORIENTED_EDGE('',*,*,#251,.T.);
#360=ORIENTED_EDGE('',*,*,#278,.T.);
#361=ORIENTED_EDGE('',*,*,#243,.T.);
#362=ORIENTED_EDGE('',*,*,#279,.F.);
#363=ORIENTED_EDGE('',*,*,#247,.F.);
#364=ORIENTED_EDGE('',*,*,#244,.T.);
#365=ORIENTED_EDGE('',*,*,#278,.F.);
#366=ORIENTED_EDGE('',*,*,#250,.T.);
#367=ORIENTED_EDGE('',*,*,#280,.F.);
#368=ORIENTED_EDGE('',*,*,#281,.F.);
#369=ORIENTED_EDGE('',*,*,#279,.T.);
#370=ORIENTED_EDGE('',*,*,#282,.F.);
#371=ORIENTED_EDGE('',*,*,#273,.F.);
#372=ORIENTED_EDGE('',*,*,#271,.F.);
#373=ORIENTED_EDGE('',*,*,#283,.F.);
#374=ORIENTED_EDGE('',*,*,#284,.F.);
#375=ORIENTED_EDGE('',*,*,#285,.F.);
#376=ORIENTED_EDGE('',*,*,#275,.F.);
#377=ORIENTED_EDGE('',*,*,#286,.F.);
#378=ORIENTED_EDGE('',*,*,#277,.T.);
#379=ORIENTED_EDGE('',*,*,#264,.T.);
#380=ORIENTED_EDGE('',*,*,#287,.T.);
#381=ORIENTED_EDGE('',*,*,#284,.T.);
#382=ORIENTED_EDGE('',*,*,#288,.F.);
#383=ORIENTED_EDGE('',*,*,#280,.T.);
#384=ORIENTED_EDGE('',*,*,#270,.T.);
#385=ORIENTED_EDGE('',*,*,#256,.T.);
#386=ORIENTED_EDGE('',*,*,#259,.T.);
#387=ORIENTED_EDGE('',*,*,#262,.T.);
#388=ORIENTED_EDGE('',*,*,#269,.T.);
#389=ORIENTED_EDGE('',*,*,#263,.T.);
#390=ORIENTED_EDGE('',*,*,#276,.F.);
#391=ORIENTED_EDGE('',*,*,#285,.T.);
#392=ORIENTED_EDGE('',*,*,#287,.F.);
#393=ORIENTED_EDGE('',*,*,#282,.T.);
#394=ORIENTED_EDGE('',*,*,#242,.T.);
#395=ORIENTED_EDGE('',*,*,#286,.T.);
#396=ORIENTED_EDGE('',*,*,#274,.T.);
#397=ORIENTED_EDGE('',*,*,#281,.T.);
#398=ORIENTED_EDGE('',*,*,#288,.T.);
#399=ORIENTED_EDGE('',*,*,#283,.T.);
#400=ORIENTED_EDGE('',*,*,#252,.T.);
#401=CONICAL_SURFACE('',#441,1.8,0.785398163397448);
#402=CONICAL_SURFACE('',#445,2.225,0.785398163397449);
#403=ADVANCED_FACE('',(#47),#401,.F.);
#404=ADVANCED_FACE('',(#48),#33,.T.);
#405=ADVANCED_FACE('',(#49),#402,.T.);
#406=ADVANCED_FACE('',(#50,#23),#34,.T.);
#407=ADVANCED_FACE('',(#51),#35,.T.);
#408=ADVANCED_FACE('',(#52),#15,.T.);
#409=ADVANCED_FACE('',(#53),#36,.T.);
#410=ADVANCED_FACE('',(#54,#24),#37,.T.);
#411=ADVANCED_FACE('',(#55),#16,.F.);
#412=ADVANCED_FACE('',(#56),#17,.F.);
#413=ADVANCED_FACE('',(#57),#18,.F.);
#414=ADVANCED_FACE('',(#58),#19,.F.);
#415=ADVANCED_FACE('',(#59),#20,.F.);
#416=ADVANCED_FACE('',(#60),#38,.T.);
#417=ADVANCED_FACE('',(#61,#25,#26,#27,#28),#39,.T.);
#418=ADVANCED_FACE('',(#62),#40,.T.);
#419=ADVANCED_FACE('',(#63),#41,.T.);
#420=ADVANCED_FACE('',(#64),#42,.T.);
#421=ADVANCED_FACE('',(#65),#43,.F.);
#422=ADVANCED_FACE('',(#66),#44,.F.);
#423=ADVANCED_FACE('',(#67,#29,#30,#31,#32),#45,.T.);
#424=ADVANCED_FACE('',(#68),#46,.T.);
#425=ADVANCED_FACE('',(#69),#21,.T.);
#426=ADVANCED_FACE('',(#70),#22,.F.);
#427=CLOSED_SHELL('',(#403,#404,#405,#406,#407,#408,#409,#410,#411,#412,
#413,#414,#415,#416,#417,#418,#419,#420,#421,#422,#423,#424,#425,#426));
#428=DERIVED_UNIT_ELEMENT(#430,1.);
#429=DERIVED_UNIT_ELEMENT(#733,-3.);
#430=(
MASS_UNIT()
NAMED_UNIT(*)
SI_UNIT(.KILO.,.GRAM.)
);
#431=DERIVED_UNIT((#428,#429));
#432=MEASURE_REPRESENTATION_ITEM('density measure',
POSITIVE_RATIO_MEASURE(7850.),#431);
#433=PROPERTY_DEFINITION_REPRESENTATION(#438,#435);
#434=PROPERTY_DEFINITION_REPRESENTATION(#439,#436);
#435=REPRESENTATION('material name',(#437),#730);
#436=REPRESENTATION('density',(#432),#730);
#437=DESCRIPTIVE_REPRESENTATION_ITEM('Steel','Steel');
#438=PROPERTY_DEFINITION('material property','material name',#740);
#439=PROPERTY_DEFINITION('material property','density of part',#740);
#440=AXIS2_PLACEMENT_3D('',#611,#485,#486);
#441=AXIS2_PLACEMENT_3D('',#612,#487,#488);
#442=AXIS2_PLACEMENT_3D('',#614,#489,#490);
#443=AXIS2_PLACEMENT_3D('',#617,#492,#493);
#444=AXIS2_PLACEMENT_3D('',#618,#494,#495);
#445=AXIS2_PLACEMENT_3D('',#619,#496,#497);
#446=AXIS2_PLACEMENT_3D('',#621,#498,#499);
#447=AXIS2_PLACEMENT_3D('',#624,#501,#502);
#448=AXIS2_PLACEMENT_3D('',#625,#503,#504);
#449=AXIS2_PLACEMENT_3D('',#628,#505,#506);
#450=AXIS2_PLACEMENT_3D('',#638,#512,#513);
#451=AXIS2_PLACEMENT_3D('',#639,#514,#515);
#452=AXIS2_PLACEMENT_3D('',#642,#516,#517);
#453=AXIS2_PLACEMENT_3D('',#645,#520,#521);
#454=AXIS2_PLACEMENT_3D('',#649,#524,#525);
#455=AXIS2_PLACEMENT_3D('',#657,#530,#531);
#456=AXIS2_PLACEMENT_3D('',#659,#532,#533);
#457=AXIS2_PLACEMENT_3D('',#662,#535,#536);
#458=AXIS2_PLACEMENT_3D('',#663,#537,#538);
#459=AXIS2_PLACEMENT_3D('',#665,#539,#540);
#460=AXIS2_PLACEMENT_3D('',#668,#542,#543);
#461=AXIS2_PLACEMENT_3D('',#669,#544,#545);
#462=AXIS2_PLACEMENT_3D('',#671,#546,#547);
#463=AXIS2_PLACEMENT_3D('',#674,#549,#550);
#464=AXIS2_PLACEMENT_3D('',#675,#551,#552);
#465=AXIS2_PLACEMENT_3D('',#680,#554,#555);
#466=AXIS2_PLACEMENT_3D('',#683,#557,#558);
#467=AXIS2_PLACEMENT_3D('',#684,#559,#560);
#468=AXIS2_PLACEMENT_3D('',#686,#561,#562);
#469=AXIS2_PLACEMENT_3D('',#689,#564,#565);
#470=AXIS2_PLACEMENT_3D('',#690,#566,#567);
#471=AXIS2_PLACEMENT_3D('',#696,#571,#572);
#472=AXIS2_PLACEMENT_3D('',#704,#577,#578);
#473=AXIS2_PLACEMENT_3D('',#706,#580,#581);
#474=AXIS2_PLACEMENT_3D('',#709,#584,#585);
#475=AXIS2_PLACEMENT_3D('',#710,#586,#587);
#476=AXIS2_PLACEMENT_3D('',#713,#589,#590);
#477=AXIS2_PLACEMENT_3D('',#714,#591,#592);
#478=AXIS2_PLACEMENT_3D('',#715,#593,#594);
#479=AXIS2_PLACEMENT_3D('',#717,#595,#596);
#480=AXIS2_PLACEMENT_3D('',#721,#599,#600);
#481=AXIS2_PLACEMENT_3D('',#722,#601,#602);
#482=AXIS2_PLACEMENT_3D('',#725,#605,#606);
#483=AXIS2_PLACEMENT_3D('',#726,#607,#608);
#484=AXIS2_PLACEMENT_3D('',#727,#609,#610);
#485=DIRECTION('axis',(0.,0.,1.));
#486=DIRECTION('refdir',(1.,0.,0.));
#487=DIRECTION('center_axis',(-1.,0.,0.));
#488=DIRECTION('ref_axis',(0.,-1.,0.));
#489=DIRECTION('center_axis',(1.,0.,-1.26161707343768E-16));
#490=DIRECTION('ref_axis',(0.,-1.,0.));
#491=DIRECTION('',(0.707106781186547,-0.707106781186547,8.65956056235493E-17));
#492=DIRECTION('center_axis',(1.,0.,-1.26161707343768E-16));
#493=DIRECTION('ref_axis',(0.,-1.,0.));
#494=DIRECTION('center_axis',(-1.,0.,1.26161707343768E-16));
#495=DIRECTION('ref_axis',(0.,-1.,0.));
#496=DIRECTION('center_axis',(-1.,0.,0.));
#497=DIRECTION('ref_axis',(0.,1.,0.));
#498=DIRECTION('center_axis',(1.,0.,0.));
#499=DIRECTION('ref_axis',(0.,1.,0.));
#500=DIRECTION('',(0.707106781186547,0.707106781186548,-8.65956056235493E-17));
#501=DIRECTION('center_axis',(1.,0.,0.));
#502=DIRECTION('ref_axis',(0.,1.,0.));
#503=DIRECTION('center_axis',(1.,0.,0.));
#504=DIRECTION('ref_axis',(0.,0.,-1.));
#505=DIRECTION('center_axis',(-1.,0.,0.));
#506=DIRECTION('ref_axis',(0.,0.707106781186548,0.707106781186547));
#507=DIRECTION('',(0.,0.,1.));
#508=DIRECTION('',(0.,-0.707106781186547,0.707106781186548));
#509=DIRECTION('',(0.,-1.,0.));
#510=DIRECTION('',(0.,-0.707106781186547,-0.707106781186548));
#511=DIRECTION('',(0.,0.,-1.));
#512=DIRECTION('center_axis',(1.,0.,0.));
#513=DIRECTION('ref_axis',(0.,1.,0.));
#514=DIRECTION('center_axis',(-1.,0.,0.));
#515=DIRECTION('ref_axis',(0.,-0.707106781186548,0.707106781186547));
#516=DIRECTION('center_axis',(1.,0.,-1.26161707343768E-16));
#517=DIRECTION('ref_axis',(0.,0.707106781186548,0.707106781186547));
#518=DIRECTION('',(1.,0.,0.));
#519=DIRECTION('',(-1.,0.,0.));
#520=DIRECTION('center_axis',(0.,-1.,0.));
#521=DIRECTION('ref_axis',(0.,0.,-1.));
#522=DIRECTION('',(-1.26161707343768E-16,0.,-1.));
#523=DIRECTION('',(-1.,0.,0.));
#524=DIRECTION('center_axis',(-1.,0.,1.26161707343768E-16));
#525=DIRECTION('ref_axis',(1.26161707343768E-16,0.,1.));
#526=DIRECTION('',(1.26161707343768E-16,0.,1.));
#527=DIRECTION('',(8.92097987888509E-17,0.707106781186547,0.707106781186548));
#528=DIRECTION('',(0.,1.,0.));
#529=DIRECTION('',(-8.92097987888509E-17,0.707106781186547,-0.707106781186548));
#530=DIRECTION('center_axis',(0.,0.,1.));
#531=DIRECTION('ref_axis',(-1.,0.,0.));
#532=DIRECTION('center_axis',(0.,0.,1.));
#533=DIRECTION('ref_axis',(-1.,0.,0.));
#534=DIRECTION('',(0.,0.,1.));
#535=DIRECTION('center_axis',(0.,0.,-1.));
#536=DIRECTION('ref_axis',(-1.,0.,0.));
#537=DIRECTION('center_axis',(0.,0.,1.));
#538=DIRECTION('ref_axis',(-1.,0.,0.));
#539=DIRECTION('center_axis',(0.,0.,1.));
#540=DIRECTION('ref_axis',(-1.,0.,0.));
#541=DIRECTION('',(0.,0.,1.));
#542=DIRECTION('center_axis',(0.,0.,-1.));
#543=DIRECTION('ref_axis',(-1.,0.,0.));
#544=DIRECTION('center_axis',(0.,0.,1.));
#545=DIRECTION('ref_axis',(-1.,0.,0.));
#546=DIRECTION('center_axis',(0.,0.,1.));
#547=DIRECTION('ref_axis',(-1.,0.,0.));
#548=DIRECTION('',(0.,0.,1.));
#549=DIRECTION('center_axis',(0.,0.,-1.));
#550=DIRECTION('ref_axis',(-1.,0.,0.));
#551=DIRECTION('center_axis',(0.,0.,1.));
#552=DIRECTION('ref_axis',(1.,-1.22464679914735E-16,0.));
#553=DIRECTION('',(0.,0.,-1.));
#554=DIRECTION('center_axis',(0.,0.,-1.));
#555=DIRECTION('ref_axis',(-1.,0.,0.));
#556=DIRECTION('',(0.,0.,1.));
#557=DIRECTION('center_axis',(0.,0.,1.));
#558=DIRECTION('ref_axis',(-1.,0.,0.));
#559=DIRECTION('center_axis',(0.,0.,1.));
#560=DIRECTION('ref_axis',(-1.,0.,0.));
#561=DIRECTION('center_axis',(0.,0.,1.));
#562=DIRECTION('ref_axis',(-1.,0.,0.));
#563=DIRECTION('',(0.,0.,1.));
#564=DIRECTION('center_axis',(0.,0.,-1.));
#565=DIRECTION('ref_axis',(-1.,0.,0.));
#566=DIRECTION('center_axis',(-1.,0.,0.));
#567=DIRECTION('ref_axis',(0.,0.,1.));
#568=DIRECTION('',(0.,-1.,0.));
#569=DIRECTION('',(0.,0.,-1.));
#570=DIRECTION('',(0.,1.,0.));
#571=DIRECTION('center_axis',(0.,0.,-1.));
#572=DIRECTION('ref_axis',(-1.,0.,0.));
#573=DIRECTION('',(1.,0.,0.));
#574=DIRECTION('',(0.,1.,0.));
#575=DIRECTION('',(-1.,0.,0.));
#576=DIRECTION('',(0.,1.,0.));
#577=DIRECTION('center_axis',(0.,-0.707106781186548,-0.707106781186547));
#578=DIRECTION('ref_axis',(-1.,0.,0.));
#579=DIRECTION('',(-1.,0.,0.));
#580=DIRECTION('center_axis',(0.,0.707106781186548,-0.707106781186547));
#581=DIRECTION('ref_axis',(-1.,0.,0.));
#582=DIRECTION('',(1.,0.,0.));
#583=DIRECTION('',(1.,0.,0.));
#584=DIRECTION('center_axis',(0.,1.,0.));
#585=DIRECTION('ref_axis',(0.,0.,1.));
#586=DIRECTION('center_axis',(0.,-1.,0.));
#587=DIRECTION('ref_axis',(1.,0.,0.));
#588=DIRECTION('',(-1.,0.,0.));
#589=DIRECTION('center_axis',(0.,1.,0.));
#590=DIRECTION('ref_axis',(0.707106781186547,0.,-0.707106781186548));
#591=DIRECTION('center_axis',(0.,-1.,0.));
#592=DIRECTION('ref_axis',(0.707106781186548,0.,-0.707106781186547));
#593=DIRECTION('center_axis',(0.,1.,0.));
#594=DIRECTION('ref_axis',(-1.,0.,0.));
#595=DIRECTION('center_axis',(0.,-1.,0.));
#596=DIRECTION('ref_axis',(0.707106781186547,0.,-0.707106781186548));
#597=DIRECTION('',(1.,0.,0.));
#598=DIRECTION('',(0.,0.,1.));
#599=DIRECTION('center_axis',(0.,1.,0.));
#600=DIRECTION('ref_axis',(0.707106781186548,0.,-0.707106781186547));
#601=DIRECTION('center_axis',(0.,0.,1.));
#602=DIRECTION('ref_axis',(1.,0.,0.));
#603=DIRECTION('',(0.,-1.,0.));
#604=DIRECTION('',(0.,-1.,0.));
#605=DIRECTION('center_axis',(-1.,0.,0.));
#606=DIRECTION('ref_axis',(0.,0.,1.));
#607=DIRECTION('center_axis',(0.,1.,0.));
#608=DIRECTION('ref_axis',(0.707106781186548,0.,-0.707106781186547));
#609=DIRECTION('center_axis',(0.,1.,0.));
#610=DIRECTION('ref_axis',(0.707106781186547,0.,-0.707106781186548));
#611=CARTESIAN_POINT('',(0.,0.,0.));
#612=CARTESIAN_POINT('Origin',(0.0500000000000007,5.55111512312578E-16,
8.45));
#613=CARTESIAN_POINT('',(-0.249999999999999,2.1,8.45));
#614=CARTESIAN_POINT('Origin',(-0.25,5.55111512312578E-16,8.45));
#615=CARTESIAN_POINT('',(0.350000000000001,1.5,8.45));
#616=CARTESIAN_POINT('',(0.0500000000000007,1.8,8.45));
#617=CARTESIAN_POINT('Origin',(0.350000000000001,5.55111512312578E-16,8.45));
#618=CARTESIAN_POINT('Origin',(0.350000000000001,5.55111512312578E-16,8.45));
#619=CARTESIAN_POINT('Origin',(0.3,0.,8.45));
#620=CARTESIAN_POINT('',(0.,-2.525,8.45));
#621=CARTESIAN_POINT('Origin',(0.,0.,8.45));
#622=CARTESIAN_POINT('',(0.6,-1.925,8.45));
#623=CARTESIAN_POINT('',(0.3,-2.225,8.45));
#624=CARTESIAN_POINT('Origin',(0.6,0.,8.45));
#625=CARTESIAN_POINT('Origin',(0.,0.,11.8));
#626=CARTESIAN_POINT('',(0.,-3.35,8.45));
#627=CARTESIAN_POINT('',(0.,3.35,8.45));
#628=CARTESIAN_POINT('Origin',(0.,0.,8.45));
#629=CARTESIAN_POINT('',(0.,-3.35,1.6));
#630=CARTESIAN_POINT('',(0.,-3.35,0.));
#631=CARTESIAN_POINT('',(0.,-2.5,0.75));
#632=CARTESIAN_POINT('',(2.77555756156289E-16,-4.85,3.1));
#633=CARTESIAN_POINT('',(0.,2.5,0.75));
#634=CARTESIAN_POINT('',(0.,0.,0.75));
#635=CARTESIAN_POINT('',(0.,3.35,1.6));
#636=CARTESIAN_POINT('',(2.77555756156289E-16,4.85,3.1));
#637=CARTESIAN_POINT('',(0.,3.35,0.));
#638=CARTESIAN_POINT('Origin',(0.6,0.,8.45));
#639=CARTESIAN_POINT('Origin',(-2.0625,0.,8.45));
#640=CARTESIAN_POINT('',(-0.249999999999999,3.35,8.45));
#641=CARTESIAN_POINT('',(-0.249999999999999,-3.35,8.45));
#642=CARTESIAN_POINT('Origin',(-0.25,0.,8.45));
#643=CARTESIAN_POINT('',(-2.0625,-3.35,8.45));
#644=CARTESIAN_POINT('',(-2.0625,3.35,8.45));
#645=CARTESIAN_POINT('Origin',(-3.875,-3.35,5.9));
#646=CARTESIAN_POINT('',(-0.25,-3.35,1.6));
#647=CARTESIAN_POINT('',(-0.249999999999999,-3.35,11.8));
#648=CARTESIAN_POINT('',(-3.875,-3.35,1.6));
#649=CARTESIAN_POINT('Origin',(-0.25,0.,0.249999999999999));
#650=CARTESIAN_POINT('',(-0.25,3.35,1.6));
#651=CARTESIAN_POINT('',(-0.249999999999999,3.35,11.8));
#652=CARTESIAN_POINT('',(-0.25,2.5,0.75));
#653=CARTESIAN_POINT('',(-0.25,1.9625,0.2125));
#654=CARTESIAN_POINT('',(-0.25,-2.5,0.75));
#655=CARTESIAN_POINT('',(-0.25,0.,0.75));
#656=CARTESIAN_POINT('',(-0.25,-1.9625,0.2125));
#657=CARTESIAN_POINT('Origin',(-6.75,-1.5,6.49));
#658=CARTESIAN_POINT('',(-6.25,-1.5,0.));
#659=CARTESIAN_POINT('Origin',(-6.75,-1.5,0.));
#660=CARTESIAN_POINT('',(-6.25,-1.5,0.25));
#661=CARTESIAN_POINT('',(-6.25,-1.5,6.49));
#662=CARTESIAN_POINT('Origin',(-6.75,-1.5,0.25));
#663=CARTESIAN_POINT('Origin',(-6.75,1.5,6.49));
#664=CARTESIAN_POINT('',(-6.25,1.5,0.));
#665=CARTESIAN_POINT('Origin',(-6.75,1.5,0.));
#666=CARTESIAN_POINT('',(-6.25,1.5,0.25));
#667=CARTESIAN_POINT('',(-6.25,1.5,6.49));
#668=CARTESIAN_POINT('Origin',(-6.75,1.5,0.25));
#669=CARTESIAN_POINT('Origin',(-1.75,1.5,6.49));
#670=CARTESIAN_POINT('',(-1.25,1.5,0.));
#671=CARTESIAN_POINT('Origin',(-1.75,1.5,0.));
#672=CARTESIAN_POINT('',(-1.25,1.5,0.25));
#673=CARTESIAN_POINT('',(-1.25,1.5,6.49));
#674=CARTESIAN_POINT('Origin',(-1.75,1.5,0.25));
#675=CARTESIAN_POINT('Origin',(-7.75,0.,6.49));
#676=CARTESIAN_POINT('',(-7.75,-0.5,0.25));
#677=CARTESIAN_POINT('',(-7.75,-0.5,0.));
#678=CARTESIAN_POINT('',(-7.75,-0.5,6.49));
#679=CARTESIAN_POINT('',(-7.75,0.5,0.25));
#680=CARTESIAN_POINT('Origin',(-7.75,0.,0.25));
#681=CARTESIAN_POINT('',(-7.75,0.5,0.));
#682=CARTESIAN_POINT('',(-7.75,0.5,6.49));
#683=CARTESIAN_POINT('Origin',(-7.75,0.,0.));
#684=CARTESIAN_POINT('Origin',(-1.75,-1.5,6.49));
#685=CARTESIAN_POINT('',(-1.25,-1.5,0.));
#686=CARTESIAN_POINT('Origin',(-1.75,-1.5,0.));
#687=CARTESIAN_POINT('',(-1.25,-1.5,0.25));
#688=CARTESIAN_POINT('',(-1.25,-1.5,6.49));
#689=CARTESIAN_POINT('Origin',(-1.75,-1.5,0.25));
#690=CARTESIAN_POINT('Origin',(-7.75,0.,0.));
#691=CARTESIAN_POINT('',(-7.75,2.5,0.25));
#692=CARTESIAN_POINT('',(-7.75,0.,0.25));
#693=CARTESIAN_POINT('',(-7.75,2.5,0.));
#694=CARTESIAN_POINT('',(-7.75,2.5,0.));
#695=CARTESIAN_POINT('',(-7.75,0.,0.));
#696=CARTESIAN_POINT('Origin',(0.,0.,0.));
#697=CARTESIAN_POINT('',(-0.75,2.5,0.));
#698=CARTESIAN_POINT('',(-3.875,2.5,0.));
#699=CARTESIAN_POINT('',(-0.75,-2.5,0.));
#700=CARTESIAN_POINT('',(-0.75,0.,0.));
#701=CARTESIAN_POINT('',(-7.75,-2.5,0.));
#702=CARTESIAN_POINT('',(0.,-2.5,0.));
#703=CARTESIAN_POINT('',(-7.75,0.,0.));
#704=CARTESIAN_POINT('Origin',(-3.875,-2.925,1.175));
#705=CARTESIAN_POINT('',(0.,-2.5,0.75));
#706=CARTESIAN_POINT('Origin',(-3.875,2.925,1.175));
#707=CARTESIAN_POINT('',(-3.875,3.35,1.6));
#708=CARTESIAN_POINT('',(-3.33066907387547E-15,2.5,0.75));
#709=CARTESIAN_POINT('Origin',(-3.875,3.35,5.9));
#710=CARTESIAN_POINT('Origin',(-7.75,2.5,0.));
#711=CARTESIAN_POINT('',(-0.75,2.5,0.25));
#712=CARTESIAN_POINT('',(-7.75,2.5,0.25));
#713=CARTESIAN_POINT('Origin',(-0.75,2.5,0.75));
#714=CARTESIAN_POINT('Origin',(-0.75,2.5,0.75));
#715=CARTESIAN_POINT('Origin',(0.,-2.5,0.));
#716=CARTESIAN_POINT('',(-0.75,-2.5,0.25));
#717=CARTESIAN_POINT('Origin',(-0.75,-2.5,0.75));
#718=CARTESIAN_POINT('',(-7.75,-2.5,0.25));
#719=CARTESIAN_POINT('',(-3.875,-2.5,0.25));
#720=CARTESIAN_POINT('',(-7.75,-2.5,0.));
#721=CARTESIAN_POINT('Origin',(-0.75,-2.5,0.75));
#722=CARTESIAN_POINT('Origin',(-7.75,0.,0.25));
#723=CARTESIAN_POINT('',(-7.75,0.,0.25));
#724=CARTESIAN_POINT('',(-0.75,0.,0.25));
#725=CARTESIAN_POINT('Origin',(-7.75,0.,0.));
#726=CARTESIAN_POINT('Origin',(-0.75,0.,0.75));
#727=CARTESIAN_POINT('Origin',(-0.75,0.,0.75));
#728=UNCERTAINTY_MEASURE_WITH_UNIT(LENGTH_MEASURE(0.01),#732,
'DISTANCE_ACCURACY_VALUE',
'Maximum model space distance between geometric entities at asserted c
onnectivities');
#729=UNCERTAINTY_MEASURE_WITH_UNIT(LENGTH_MEASURE(0.01),#732,
'DISTANCE_ACCURACY_VALUE',
'Maximum model space distance between geometric entities at asserted c
onnectivities');
#730=(
GEOMETRIC_REPRESENTATION_CONTEXT(3)
GLOBAL_UNCERTAINTY_ASSIGNED_CONTEXT((#728))
GLOBAL_UNIT_ASSIGNED_CONTEXT((#732,#734,#735))
REPRESENTATION_CONTEXT('','3D')
);
#731=(
GEOMETRIC_REPRESENTATION_CONTEXT(3)
GLOBAL_UNCERTAINTY_ASSIGNED_CONTEXT((#729))
GLOBAL_UNIT_ASSIGNED_CONTEXT((#732,#734,#735))
REPRESENTATION_CONTEXT('','3D')
);
#732=(
LENGTH_UNIT()
NAMED_UNIT(*)
SI_UNIT(.MILLI.,.METRE.)
);
#733=(
LENGTH_UNIT()
NAMED_UNIT(*)
SI_UNIT($,.METRE.)
);
#734=(
NAMED_UNIT(*)
PLANE_ANGLE_UNIT()
SI_UNIT($,.RADIAN.)
);
#735=(
NAMED_UNIT(*)
SI_UNIT($,.STERADIAN.)
SOLID_ANGLE_UNIT()
);
#736=SHAPE_DEFINITION_REPRESENTATION(#737,#738);
#737=PRODUCT_DEFINITION_SHAPE('',$,#740);
#738=SHAPE_REPRESENTATION('',(#440),#730);
#739=PRODUCT_DEFINITION_CONTEXT('part definition',#744,'design');
#740=PRODUCT_DEFINITION('MY-ZJ-3030','MY-ZJ-3030 v3',#741,#739);
#741=PRODUCT_DEFINITION_FORMATION('',$,#746);
#742=PRODUCT_RELATED_PRODUCT_CATEGORY('MY-ZJ-3030 v3','MY-ZJ-3030 v3',(#746));
#743=APPLICATION_PROTOCOL_DEFINITION('international standard',
'automotive_design',2009,#744);
#744=APPLICATION_CONTEXT(
'Core Data for Automotive Mechanical Design Process');
#745=PRODUCT_CONTEXT('part definition',#744,'mechanical');
#746=PRODUCT('MY-ZJ-3030','MY-ZJ-3030 v3',$,(#745));
#747=PRESENTATION_STYLE_ASSIGNMENT((#748));
#748=SURFACE_STYLE_USAGE(.BOTH.,#749);
#749=SURFACE_SIDE_STYLE('',(#750));
#750=SURFACE_STYLE_FILL_AREA(#751);
#751=FILL_AREA_STYLE('Steel - Satin',(#752));
#752=FILL_AREA_STYLE_COLOUR('Steel - Satin',#753);
#753=COLOUR_RGB('Steel - Satin',0.627450980392157,0.627450980392157,0.627450980392157);
ENDSEC;
END-ISO-10303-21;
